<svg width="362" height="47" viewBox="0 0 362 47" fill="none" xmlns="http://www.w3.org/2000/svg">
<g filter="url(#filter0_i_107_23)">
<path fill-rule="evenodd" clip-rule="evenodd" d="M21.1366 0.57879C23.4136 1.17379 23.4136 3.90279 21.1366 3.84579C20.1746 3.82179 17.5866 3.15379 15.3866 2.36079C6.66657 -0.78121 0.355575 1.47179 1.06158 7.47379C1.40158 10.3658 3.88658 12.1758 3.88658 9.53179C3.88658 6.96179 5.44857 6.80379 12.8016 8.63079C19.6386 10.3298 19.8796 10.4938 19.8826 13.4398C19.8846 15.1178 19.3466 17.0298 18.6866 17.6898C17.7536 18.6228 17.7536 19.1568 18.6866 20.0898C19.3466 20.7498 19.8866 23.1948 19.8866 25.5228C19.8866 30.3038 18.1096 31.5368 12.8756 30.3878C8.50458 29.4278 8.33457 28.1208 12.3336 26.2138L15.8866 24.5198V17.7048C15.8866 10.3638 15.3776 9.82279 10.8866 12.3898C7.07957 14.5658 6.27857 14.1658 8.88657 11.3898C11.7126 8.38179 10.7686 8.18179 6.42458 10.8658C-6.40842 18.7978 1.56957 39.2358 16.4126 36.4508C20.3846 35.7058 25.3626 31.1128 26.3166 27.3138C27.2746 23.4948 26.3576 23.2408 23.4696 26.5248L20.9496 29.3898L20.9186 25.9688C20.9006 24.0868 21.6316 21.7248 22.5416 20.7188C24.0816 19.0168 24.0816 18.7628 22.5416 17.0608C20.0186 14.2728 20.4756 11.1948 23.6366 9.68679C28.7756 7.23579 27.5226 -0.23721 22.0146 0.00579033C20.3206 0.0807903 20.0086 0.28379 21.1366 0.57879ZM32.4686 2.24279L29.6666 4.47779L29.8246 17.5948C29.9316 26.4688 29.6156 30.9398 28.8466 31.4148C27.8026 32.0598 28.8456 32.9478 33.5556 35.4268C34.1986 35.7648 35.9766 35.2218 37.5056 34.2198C39.7186 32.7698 39.9396 32.3308 38.5866 32.0708C36.7876 31.7238 35.9086 16.8898 37.6866 16.8898C41.8346 16.8898 42.4566 34.4108 38.4516 38.4158C35.4246 41.4428 36.6996 42.4128 41.2206 40.5238C45.9826 38.5338 46.3216 37.6868 46.8866 26.3898C47.3546 17.0378 47.2466 16.2768 45.2286 14.6398C42.8256 12.6908 40.3256 12.3698 39.3866 13.8898C37.7976 16.4608 36.8866 14.2958 36.8866 7.94879C36.8866 -0.0702095 36.3076 -0.81821 32.4686 2.24279ZM227.598 2.69379C224.978 4.43579 224.13 5.53279 224.848 6.25079C226.352 7.75479 226.211 30.1658 224.687 31.6898C223.754 32.6228 223.792 32.8898 224.858 32.8898C225.612 32.8898 227.023 33.6078 227.992 34.4848C229.61 35.9488 230.01 35.9308 232.834 34.2618C235.688 32.5768 235.766 32.3888 233.9 31.6988C232.403 31.1448 231.887 30.0488 231.887 27.4218C231.887 22.7418 232.227 22.9028 236.59 29.6398C238.639 32.8028 240.441 35.5748 240.595 35.8008C241.016 36.4178 247.887 32.5488 247.887 31.6938C247.887 31.2858 247.325 31.1628 246.637 31.4198C245.923 31.6868 243.671 29.2438 241.387 25.7268C236.267 17.8418 236.34 18.1558 239.737 18.6548C241.934 18.9768 243.035 18.5168 244.263 16.7628C246.517 13.5458 246.4 13.3698 241.933 13.2518C238.393 13.1598 237.687 13.5708 235.183 17.1928L232.387 21.2358L231.887 10.7058L231.387 0.17479L227.598 2.69379ZM275.137 0.53379C276.099 0.80979 276.887 1.46779 276.887 1.99479C276.887 3.87079 273.854 4.06679 269.227 2.48979C261.194 -0.24721 257.253 0.36579 254.966 4.70679C253.964 6.60879 254.031 7.45979 255.339 9.45679C257.273 12.4088 258.251 12.6128 257.385 9.88479C256.428 6.86779 258.695 6.57079 266.469 8.69479C274.067 10.7708 275.758 13.1648 272.312 16.9718C270.696 18.7578 270.691 19.0148 272.232 20.7188C277.791 26.8608 271.411 33.6018 263.951 29.4698L261.515 28.1198L265.701 25.9848L269.887 23.8488V17.3698C269.887 10.3838 269.344 9.84179 264.887 12.3898C261.08 14.5658 260.279 14.1658 262.887 11.3898C265.698 8.39779 264.578 8.17079 260.191 10.8458C253.815 14.7338 251.41 21.9738 254.401 28.2778C259.881 39.8268 276.405 39.0298 279.841 27.0498C280.956 23.1638 280.158 23.0398 277.211 26.6398L274.959 29.3898L274.923 25.4998C274.899 22.9478 275.489 21.1428 276.637 20.2498C278.304 18.9548 278.304 18.8248 276.637 17.5298C273.899 15.4018 274.505 11.8538 278.123 8.83379C282.334 5.31779 281.356 0.51079 276.369 0.21079C274.729 0.11179 274.175 0.25779 275.137 0.53379ZM76.9256 3.07879C74.0496 6.16479 74.2596 8.08479 77.3866 7.30079C79.6916 6.72179 79.8866 6.94279 79.8866 10.1208C79.8866 12.8278 79.3496 13.8138 77.3866 14.7078C74.4886 16.0288 73.9016 20.8278 76.3866 22.8898C77.6116 23.9058 77.8866 23.8478 77.8866 22.5708C77.8866 21.7118 78.3366 20.7298 78.8866 20.3898C79.4906 20.0168 79.8866 21.3798 79.8866 23.8308C79.8866 26.5348 79.4436 27.8898 78.5606 27.8898C76.5816 27.8898 72.8866 32.2268 72.8866 34.5488C72.8866 37.0508 75.8806 39.9008 78.4656 39.8598C80.2496 39.8308 80.2616 39.7558 78.6366 38.8098C75.1996 36.8078 76.5006 34.5728 80.7106 35.2458C84.1866 35.8018 84.7466 35.5628 86.8676 32.6238C88.1516 30.8448 88.8426 29.7158 88.4036 30.1138C87.9646 30.5118 86.3196 30.0768 84.7466 29.1478C81.9566 27.4998 81.8866 27.2508 81.8866 18.9518C81.8866 9.29079 81.7746 9.24879 88.3796 21.3898C93.8416 31.4318 96.7686 35.8898 97.8996 35.8898C98.5006 35.8898 98.8866 30.6208 98.8866 22.4248C98.8866 10.0358 99.0446 8.87579 100.864 7.90179C101.951 7.31979 103.322 5.94479 103.91 4.84579C105.287 2.27279 104.23 0.35979 102.311 1.95279C101.53 2.60079 99.7916 2.83179 98.3736 2.47579C96.3886 1.97779 95.3016 2.44479 93.3926 4.61379C90.4756 7.92879 90.2866 8.84679 92.6366 8.28279C96.0636 7.46179 97.0056 9.25179 96.6886 15.9808L96.3866 22.3898L91.4286 13.6048C83.9306 0.32079 81.2846 -1.60021 76.9256 3.07879ZM159.922 3.82379C158.488 6.50379 158.6 6.77779 160.887 6.17979C164.333 5.27879 163.807 15.1498 160.324 16.7368C158.234 17.6888 157.819 18.4878 158.074 21.0698C158.39 24.2698 160.887 26.4028 160.887 23.4728C160.887 22.6018 161.337 21.8898 161.887 21.8898C163.876 21.8898 163.041 32.7358 160.887 34.8898C155.641 40.1358 160.321 45.4698 169.264 44.4378C179.964 43.2038 180.4 43.2318 180.248 45.1398C180.172 46.1018 180.679 46.8898 181.376 46.8898C183.466 46.8898 185.052 44.1908 184.709 41.2188C184.241 37.1618 180.616 36.1858 171.693 37.7158C164.26 38.9908 162.089 38.4118 163.223 35.4568C163.946 33.5738 167.79 33.4408 174.794 35.0578C184.343 37.2618 184.887 36.4568 184.887 20.1108C184.887 10.4388 185.262 5.88579 186.137 4.94279C187.142 3.86079 187.129 3.74279 186.074 4.34079C185.316 4.77079 183.925 4.32879 182.783 3.29579C180.939 1.62679 180.621 1.61579 178.051 3.13379C175.495 4.64379 175.213 4.63979 174.15 3.07579C173.266 1.77379 172.991 4.97679 172.946 17.1398C172.896 30.4468 172.654 32.8898 171.387 32.8898C170.124 32.8898 169.887 30.6338 169.887 18.5898C169.887 8.80079 169.508 3.91079 168.687 3.08979C166.733 1.13579 161.109 1.60679 159.922 3.82379ZM284.459 4.21279C282.877 5.37079 282.82 5.80979 284.009 7.71279C285.669 10.3718 287.059 10.4618 289.24 8.05179C291.989 5.01479 287.877 1.71379 284.459 4.21279ZM120.522 8.96279C117.34 11.4648 117.228 13.0798 119.978 16.7988C121.713 19.1458 122.011 20.7588 121.728 26.2608C121.541 29.9088 121.802 32.8928 122.308 32.8918C122.815 32.8908 124.071 33.6508 125.099 34.5818C126.844 36.1608 127.154 36.1628 129.779 34.6128C132.242 33.1578 132.825 33.1298 134.489 34.3888C137.199 36.4408 138.25 36.2638 143.872 32.8038L148.887 29.7178V23.5038C148.887 20.0038 149.411 16.7658 150.087 16.0898C151.02 15.1568 150.982 14.8898 149.916 14.8898C149.162 14.8898 147.795 14.2108 146.878 13.3818C143.575 10.3928 141.557 14.5968 141.804 23.9528C142.016 31.9808 142.004 32.0228 139.827 30.8578C137.803 29.7748 137.673 29.1248 138.112 22.2858C138.653 13.8578 137.565 11.8048 133.531 13.6418C131.337 14.6418 131.255 15.0738 131.691 23.3788C132.146 32.0428 132.141 32.0648 130.017 30.7388C128.162 29.5808 127.887 28.4728 127.887 22.1728C127.887 15.5058 127.685 14.8038 125.319 13.2528C123.363 11.9718 122.891 11.0118 123.338 9.22979C124.056 6.36879 123.844 6.34879 120.522 8.96279ZM178.451 9.28779C179.353 12.8828 178.581 16.3898 176.887 16.3898C175.807 16.3898 175.302 15.0598 175.082 11.6398C174.746 6.40679 177.283 4.63579 178.451 9.28779ZM56.3866 14.6628L51.3866 17.3898L50.8866 24.6408C50.6116 28.6298 50.7676 31.8918 51.2326 31.8908C51.6976 31.8908 53.4006 32.8318 55.0166 33.9828C58.2156 36.2598 58.4146 36.1988 64.8866 30.9588C67.7256 28.6598 66.4216 28.1708 63.4486 30.4198C61.7076 31.7368 61.2756 31.6648 59.1986 29.7128C56.0966 26.7988 56.1936 26.5118 61.3846 23.2318C63.8586 21.6688 65.8836 19.9928 65.8846 19.5078C65.8866 18.7208 61.9726 11.8548 61.5546 11.9128C61.4626 11.9258 59.1366 13.1638 56.3866 14.6628ZM194.105 14.9498L188.887 17.9298V23.8278C188.887 27.0718 188.586 30.5118 188.217 31.4718C187.758 32.6688 187.918 32.9888 188.727 32.4888C189.375 32.0878 191.088 32.6888 192.532 33.8248C195.853 36.4378 195.901 36.4338 201.379 33.1398L205.953 30.3898L205.67 23.5128C205.41 17.1888 205.144 16.4488 202.355 14.3028L199.323 11.9698L194.105 14.9498ZM295.387 14.3418C292.966 16.3398 292.741 16.8248 294.224 16.8538C295.873 16.8858 296.03 17.6928 295.761 24.7818C295.461 32.6998 296.493 35.8898 299.354 35.8898C301.286 35.8898 304.646 31.6878 303.137 31.1608C301.345 30.5338 301.393 16.8898 303.187 16.8898C306.551 16.8898 308.493 26.8018 305.924 30.8638C305.269 31.9008 305.558 32.8658 306.897 34.1138C311.298 38.2138 313.4 35.0048 313.013 24.7818C312.716 16.9458 313.402 15.3958 315.857 18.3538C316.624 19.2778 316.949 22.2218 316.738 26.3268C316.309 34.6618 318.213 37.3688 322.621 34.6938C325.57 32.9048 326.893 30.6558 324.731 31.1088C323.697 31.3248 323.387 29.6008 323.387 23.6378C323.387 18.4898 323.003 15.8868 322.244 15.8878C321.615 15.8888 320.842 15.2148 320.525 14.3898C319.773 12.4288 317.431 12.4878 314.287 14.5468C311.887 16.1198 311.65 16.0968 309.653 14.0998L307.548 11.9948L304.696 14.0258L301.843 16.0568L300.115 13.9618L298.387 11.8658L295.387 14.3418ZM332.113 15.0378L326.887 18.0548V24.3538C326.887 30.3538 327.05 30.7768 330.32 33.2708C334.644 36.5688 334.591 36.5748 339.387 32.2698C341.89 30.0228 342.407 29.2558 340.769 30.2208C338.442 31.5918 337.914 31.5968 336.019 30.2698C332.841 28.0438 333.396 26.3238 338.407 22.8758L342.927 19.7658L341.157 16.7508C338.322 11.9218 337.71 11.8058 332.113 15.0378ZM349.387 14.1808C345.078 16.6138 343.336 22.3158 345.941 25.4548C346.866 26.5698 346.753 27.4448 345.421 29.4788C344.373 31.0778 343.95 33.0038 344.321 34.4838C344.983 37.1188 346.887 37.7918 346.887 35.3898C346.887 33.6538 349.977 33.3798 351.572 34.9748C352.352 35.7548 353.814 35.3298 356.772 33.4628C361.229 30.6488 362.65 24.5978 359.473 21.9608C358.256 20.9508 358.255 20.4108 359.467 18.0888C361.644 13.9148 361.382 11.5638 358.912 13.1058C357.353 14.0798 356.679 14.0818 355.712 13.1148C354.122 11.5248 354.079 11.5318 349.387 14.1808ZM107.137 15.1488L102.887 17.2838V23.8868C102.887 27.7838 102.375 31.0418 101.637 31.8368C100.636 32.9158 100.639 33.0408 101.655 32.4658C102.353 32.0718 104.502 32.7248 106.431 33.9168L109.938 36.0848L114.316 32.7368C118.819 29.2938 119.763 27.4308 115.632 30.1368C113.523 31.5188 113.107 31.4868 110.993 29.7748C108.034 27.3778 108.726 25.6708 113.816 22.8098C118.497 20.1788 118.624 19.7338 115.819 15.7938C113.387 12.3798 112.745 12.3318 107.137 15.1488ZM209.01 14.7618C206.642 16.5828 206.641 16.5918 208.76 17.1468C211.137 17.7678 212.035 30.0618 209.804 31.4408C209.163 31.8378 210.003 32.8898 211.863 34.0218C214.874 35.8528 215.13 35.8598 217.959 34.1878C220.715 32.5608 220.778 32.3938 218.9 31.6988C217.17 31.0588 216.887 30.0548 216.887 24.5608C216.887 18.3678 216.962 18.1818 219.265 18.6218C221.478 19.0448 224.887 16.0408 224.887 13.6668C224.887 12.2508 219.155 12.8618 217.866 14.4148C216.732 15.7818 216.425 15.7818 214.915 14.4148C212.766 12.4698 211.927 12.5198 209.01 14.7618ZM282.748 14.8568C280.767 16.5068 280.669 16.8288 282.137 16.8568C284.273 16.8968 284.745 29.6318 282.687 31.6898C281.754 32.6228 281.792 32.8898 282.858 32.8898C283.612 32.8898 285.041 33.6238 286.033 34.5218C287.702 36.0328 288.034 36.0238 290.515 34.3978C292.859 32.8628 292.987 32.5258 291.541 31.7158C289.454 30.5478 289.103 17.3728 291.137 16.5518C291.926 16.2338 291.782 16.0188 290.744 15.9688C289.84 15.9258 288.842 15.2148 288.525 14.3898C287.737 12.3338 285.565 12.5098 282.748 14.8568ZM9.88657 20.3308C9.88657 25.7838 8.42558 28.3498 6.79058 25.7678C5.45158 23.6548 5.70658 16.1288 7.13658 15.5518C9.63458 14.5438 9.88657 14.9818 9.88657 20.3308ZM262.887 20.9728C262.887 25.2718 262.534 26.9388 261.683 26.6548C259.804 26.0288 258.571 19.8788 259.789 17.2048C261.643 13.1358 262.887 14.6488 262.887 20.9728ZM59.3766 19.5158C60.7946 21.6788 60.8586 22.2928 59.7416 22.9998C57.4106 24.4778 56.8866 23.9988 56.8866 20.3898C56.8866 16.1958 57.1426 16.1058 59.3766 19.5158ZM111.508 22.4358C110.442 25.2138 108.887 23.8678 108.887 20.1668C108.887 16.4808 108.902 16.4668 110.476 18.7138C111.35 19.9618 111.814 21.6368 111.508 22.4358ZM198.687 18.0898C199.368 18.7708 199.887 22.0308 199.887 25.6248C199.887 31.6498 199.789 31.9078 197.887 30.8898C196.204 29.9888 195.887 28.7958 195.887 23.3548C195.887 16.8838 196.441 15.8438 198.687 18.0898ZM336.372 22.9138C335.063 25.0328 333.889 23.7018 333.927 20.1398L333.967 16.3898L335.471 19.1638C336.299 20.6888 336.704 22.3768 336.372 22.9138ZM354.265 18.2418C356.824 19.5698 356.836 19.6258 354.942 21.3398C352.595 23.4638 350.887 22.6178 350.887 19.3308C350.887 16.4798 350.875 16.4828 354.265 18.2418ZM178.887 19.3278C178.887 20.1488 178.03 20.7008 176.887 20.6148C175.787 20.5318 174.887 19.8848 174.887 19.1768C174.887 18.4688 175.787 17.8898 176.887 17.8898C177.987 17.8898 178.887 18.5368 178.887 19.3278ZM178.698 26.7228C178.992 30.7928 177.724 33.8898 175.765 33.8898C175.282 33.8898 174.887 31.1568 174.887 27.8168C174.887 22.5728 175.126 21.7888 176.637 22.0748C177.92 22.3188 178.47 23.5598 178.698 26.7228ZM354.887 27.7408C354.887 30.5328 354.816 30.5688 351.439 29.5118C348.218 28.5038 348.096 28.3158 349.594 26.6618C352.161 23.8238 354.887 24.3798 354.887 27.7408Z" fill="#1B4942"/>
</g>
<defs>
<filter id="filter0_i_107_23" x="0" y="0" width="361.19" height="50.8898" filterUnits="userSpaceOnUse" color-interpolation-filters="sRGB">
<feFlood flood-opacity="0" result="BackgroundImageFix"/>
<feBlend mode="normal" in="SourceGraphic" in2="BackgroundImageFix" result="shape"/>
<feColorMatrix in="SourceAlpha" type="matrix" values="0 0 0 0 0 0 0 0 0 0 0 0 0 0 0 0 0 0 127 0" result="hardAlpha"/>
<feOffset dy="4"/>
<feGaussianBlur stdDeviation="2"/>
<feComposite in2="hardAlpha" operator="arithmetic" k2="-1" k3="1"/>
<feColorMatrix type="matrix" values="0 0 0 0 0 0 0 0 0 0 0 0 0 0 0 0 0 0 0.1 0"/>
<feBlend mode="normal" in2="shape" result="effect1_innerShadow_107_23"/>
</filter>
</defs>
</svg>
