<svg width="192" height="58" viewBox="0 0 192 58" fill="none" xmlns="http://www.w3.org/2000/svg">
<g filter="url(#filter0_i_107_21)">
<path fill-rule="evenodd" clip-rule="evenodd" d="M16.3588 2.12355C-8.35721 14.4026 -3.97821 56.3626 22.1718 57.8406C49.7568 59.3996 64.7038 17.7766 41.6748 3.53355C35.0958 -0.534447 23.0578 -1.20545 16.3588 2.12355ZM38.3288 13.5646C48.3248 20.0756 43.7278 34.6076 31.0298 36.6386C28.1318 37.1016 27.1398 37.7946 26.6648 39.6876C26.2078 41.5116 25.4838 42.0566 23.8358 41.8226C21.7358 41.5236 21.6058 40.9756 21.3358 31.2576L21.0508 21.0076H24.0858H27.1208V27.0076C27.1208 33.7666 28.5408 34.6446 34.1308 31.3426C39.6888 28.0596 40.5748 22.3086 36.1978 17.9306C31.4448 13.1786 18.6448 14.0566 14.1758 19.4416C12.5518 21.3986 10.1208 21.4816 10.1208 19.5806C10.1208 17.3296 17.1298 12.1386 21.5768 11.0956C27.2918 9.75555 33.9978 10.7436 38.3288 13.5646ZM62.1208 15.7686C62.1208 16.3216 63.0208 17.0096 64.1208 17.2976C67.3918 18.1526 67.1648 39.6526 63.8708 40.9766C62.2108 41.6436 63.4558 41.8806 68.6208 41.8806C73.7858 41.8806 75.0308 41.6436 73.3708 40.9766C69.8208 39.5496 70.0578 32.0076 73.6528 32.0076C82.9448 32.0076 87.9918 24.4566 82.7628 18.3786C80.5798 15.8396 79.7298 15.6046 71.2628 15.1996C65.5108 14.9246 62.1208 15.1356 62.1208 15.7686ZM78.5638 19.2306C81.8048 23.8576 79.2368 30.0076 74.0638 30.0076H71.1208V23.5076V17.0076H74.0638C75.9718 17.0076 77.5548 17.7896 78.5638 19.2306ZM87.7928 25.0506C80.3768 30.8846 86.0758 44.7326 94.9788 42.5106C97.8938 41.7836 101.121 39.2546 101.121 37.6976C101.121 37.1476 100.298 37.4426 99.2918 38.3526C95.4648 41.8166 89.1208 39.2126 89.1208 34.1786C89.1208 32.1916 89.6298 32.0076 95.1208 32.0076C100.854 32.0076 101.121 31.8966 101.121 29.5076C101.121 23.6196 93.0458 20.9196 87.7928 25.0506ZM105.871 24.0876C103.947 25.2086 103.518 28.5166 105.165 29.5346C106.647 30.4506 109.109 28.1386 108.458 26.4426C107.722 24.5246 110.781 23.4806 112.634 25.0186C115.64 27.5136 114.464 30.8376 110.166 31.9956C102.997 33.9256 100.905 38.5096 105.746 41.6816C108.163 43.2656 108.589 43.2756 111.139 41.8116C113.539 40.4346 114.098 40.4136 115.337 41.6516C116.125 42.4396 117.519 42.7926 118.443 42.4376C120.262 41.7396 120.745 40.0076 119.121 40.0076C118.552 40.0076 118.121 37.0596 118.121 33.1626C118.121 27.8016 117.725 25.9586 116.292 24.6626C114.262 22.8256 108.576 22.5116 105.871 24.0876ZM122.921 24.2076C124.59 25.8766 124.547 40.6696 122.871 41.3456C122.184 41.6226 123.871 41.8326 126.621 41.8126C129.371 41.7926 130.834 41.5696 129.871 41.3186C127.583 40.7206 127.302 28.9326 129.532 27.0816C130.497 26.2806 131.148 26.2426 131.591 26.9586C132.906 29.0866 136.281 28.1546 135.941 25.7576C135.572 23.1626 131.841 22.1646 129.566 24.0536C128.543 24.9026 128.121 24.9246 128.121 24.1296C128.121 23.5126 126.681 23.0076 124.921 23.0076C122.432 23.0076 121.988 23.2746 122.921 24.2076ZM138.454 25.6226C136.032 29.3186 138.148 32.8576 143.927 34.7796C147.423 35.9416 148.176 36.6166 147.927 38.3596C147.452 41.6926 142.704 41.8266 140.569 38.5676C138.37 35.2126 137.121 35.3245 137.121 38.8755C137.121 43.9135 149.031 44.0166 150.626 38.9926C151.924 34.9016 150.384 32.2736 145.623 30.4556C142.475 29.2526 141.121 28.1656 141.121 26.8406C141.121 23.6516 144.183 23.3786 146.731 26.3406C149.652 29.7366 150.121 29.6906 150.121 26.0076C150.121 23.0766 150.007 23.0076 145.144 23.0076C140.88 23.0076 139.922 23.3826 138.454 25.6226ZM155.808 25.8126C149.902 31.9766 153.732 42.4626 161.889 42.4626C166.531 42.4626 168.89 40.8016 170.825 36.1716C174.869 26.4966 162.998 18.3076 155.808 25.8126ZM172.921 24.2076C174.59 25.8766 174.547 40.6696 172.871 41.3456C172.184 41.6226 173.623 41.8856 176.071 41.9286C179.532 41.9896 180.254 41.7406 179.321 40.8076C176.169 37.6556 179.082 25.0076 182.96 25.0076C186.034 25.0076 187.806 40.1606 184.871 41.3456C184.184 41.6226 185.646 41.8496 188.121 41.8496C190.596 41.8496 192.059 41.6226 191.371 41.3456C190.523 41.0026 190.121 38.3616 190.121 33.1246C190.121 28.4556 189.647 24.9336 188.921 24.2076C187.349 22.6356 181.882 22.6666 180.196 24.2576C179.136 25.2576 178.779 25.2576 178.413 24.2576C178.161 23.5706 176.552 23.0076 174.838 23.0076C172.414 23.0076 171.988 23.2746 172.921 24.2076ZM95.5498 25.5786C98.3648 28.3936 97.4798 30.0076 93.1208 30.0076C90.3208 30.0076 89.1208 29.5786 89.1208 28.5786C89.1208 27.0156 91.7528 24.0076 93.1208 24.0076C93.5918 24.0076 94.6848 24.7146 95.5498 25.5786ZM165.564 26.2306C169.057 31.2156 166.857 41.3416 162.394 40.8236C158.821 40.4096 156.919 36.7226 157.457 31.2586C158.152 24.2016 162.329 21.6106 165.564 26.2306ZM114.121 35.3076C114.121 38.0656 112.385 40.0076 109.921 40.0076C107.529 40.0076 107.49 35.4746 109.871 34.0876C112.698 32.4406 114.121 32.8496 114.121 35.3076ZM26.1208 47.0076C26.1208 48.3406 25.4538 49.0076 24.1208 49.0076C22.7878 49.0076 22.1208 48.3406 22.1208 47.0076C22.1208 45.6746 22.7878 45.0076 24.1208 45.0076C25.4538 45.0076 26.1208 45.6746 26.1208 47.0076Z" fill="#1B4942"/>
</g>
<defs>
<filter id="filter0_i_107_21" x="0" y="0" width="191.541" height="61.8832" filterUnits="userSpaceOnUse" color-interpolation-filters="sRGB">
<feFlood flood-opacity="0" result="BackgroundImageFix"/>
<feBlend mode="normal" in="SourceGraphic" in2="BackgroundImageFix" result="shape"/>
<feColorMatrix in="SourceAlpha" type="matrix" values="0 0 0 0 0 0 0 0 0 0 0 0 0 0 0 0 0 0 127 0" result="hardAlpha"/>
<feOffset dy="4"/>
<feGaussianBlur stdDeviation="2"/>
<feComposite in2="hardAlpha" operator="arithmetic" k2="-1" k3="1"/>
<feColorMatrix type="matrix" values="0 0 0 0 0 0 0 0 0 0 0 0 0 0 0 0 0 0 0.1 0"/>
<feBlend mode="normal" in2="shape" result="effect1_innerShadow_107_21"/>
</filter>
</defs>
</svg>
