<svg width="173" height="50" viewBox="0 0 173 50" fill="none" xmlns="http://www.w3.org/2000/svg">
<g filter="url(#filter0_i_110_49)">
<path fill-rule="evenodd" clip-rule="evenodd" d="M14.124 2.41593C12.457 3.81893 10.537 6.50393 9.857 8.38493C9.038 10.6509 7.674 12.1339 5.811 12.7829C4.265 13.3219 2.986 14.1239 2.968 14.5649C2.951 15.0059 2.285 19.8669 1.488 25.3669C0.691 30.8669 0.03 37.1749 0.019 39.3839L0 43.4019L12.611 45.6899C19.547 46.9489 25.48 47.7199 25.796 47.4039C26.112 47.0879 26.762 37.8719 27.24 26.9239C28.2 4.97093 28.125 4.61693 21.8 1.28793C18.175 -0.619073 17.638 -0.540073 14.124 2.41593ZM17.073 4.50193C15.933 5.95093 15 7.70293 15 8.39493C15 9.67193 12.087 11.2869 11.266 10.4659C9.728 8.92893 14.94 1.86693 17.612 1.86693C18.853 1.86693 18.751 2.36793 17.073 4.50193ZM24.393 4.44893C25.199 6.54793 25.162 6.86693 24.117 6.86693C23.631 6.86693 22.998 5.96693 22.71 4.86693C22.093 2.50493 23.512 2.15293 24.393 4.44893ZM20.82 6.10693C20.644 7.33893 19.712 8.49693 18.75 8.67993C16.744 9.06193 16.409 6.85793 18.2 5.06693C20.062 3.20493 21.171 3.64493 20.82 6.10693ZM28.931 12.1169C28.893 15.0049 28.507 24.1169 28.073 32.3669C27.638 40.6169 27.391 47.5009 27.522 47.6639C27.653 47.8269 30.739 47.4119 34.38 46.7409C42.207 45.2989 41.845 46.8309 39.008 27.1719C36.408 9.15693 36.329 8.86693 34.04 8.86693C32.983 8.86693 31.84 8.41693 31.5 7.86693C30.04 5.50493 28.995 7.23393 28.931 12.1169ZM70.617 11.6169C70.332 12.5799 69.155 18.5419 68 24.8669C66.845 31.1919 65.668 37.1549 65.383 38.1169C64.975 39.4969 65.471 39.8669 67.733 39.8669C70.444 39.8669 70.67 39.5289 71.886 33.6409C73.511 25.7739 74.543 23.8669 77.178 23.8669C79.322 23.8669 79.422 30.2969 77.391 37.6169C76.846 39.5819 77.139 39.8669 79.711 39.8669C82.538 39.8669 82.701 39.6149 83.827 33.5019C86.315 19.9979 83.506 15.3219 76.046 20.5469C73.982 21.9929 73.731 22.0109 74.243 20.6749C74.571 19.8209 75.151 17.0399 75.533 14.4949C76.204 10.0209 76.142 9.86693 73.681 9.86693C72.12 9.86693 70.934 10.5439 70.617 11.6169ZM146.455 12.3219C145.105 13.6719 144 15.6969 144 16.8219C144 17.9469 143.373 18.8669 142.607 18.8669C141.297 18.8669 140 20.8969 140 22.9489C140 23.4539 140.619 23.8669 141.376 23.8669C142.54 23.8669 142.546 24.8289 141.411 30.1169C139.498 39.0329 139.586 39.8669 142.433 39.8669C145.108 39.8669 145.297 39.4709 147.063 30.1709C148.032 25.0639 148.613 23.9209 150.37 23.6709C153.338 23.2469 153.977 18.8669 151.07 18.8669C149.931 18.8669 149 18.4489 149 17.9379C149 16.5599 151.947 13.8669 153.455 13.8669C154.176 13.8669 155.002 12.9669 155.29 11.8669C156.103 8.75793 149.688 9.08793 146.455 12.3219ZM133.57 12.5449C133.216 13.4669 133.538 14.8339 134.286 15.5809C136.198 17.4929 139 16.1129 139 13.2599C139 10.3779 134.623 9.80093 133.57 12.5449ZM19.665 16.4749C22.87 17.3349 20.893 23.1109 17.654 22.3519C12.887 21.2349 12.248 23.5559 16.25 27.4479C20.393 31.4779 21.053 34.9179 18.408 38.6959C16.466 41.4679 8.42 41.5069 6.693 38.7529C5.313 36.5499 6.626 33.0929 8.233 34.6999C9.713 36.1799 13 36.2229 13 34.7609C13 34.1529 11.875 32.3189 10.5 30.6849C4.698 23.7899 10.928 14.1309 19.665 16.4749ZM54.75 20.4389C53.237 21.2599 52 22.3299 52 22.8169C52 23.3049 51.723 24.4249 51.384 25.3079C50.978 26.3679 52.046 28.1169 54.529 30.4589C58.964 34.6419 57.889 37.9159 52.726 35.9529C50.492 35.1039 50.011 35.2559 49.462 36.9869C48.59 39.7329 49.088 40.0339 54.496 40.0339C63.077 40.0339 65.916 33.6929 59.866 28.0389C56.227 24.6379 56.768 22.3709 61.017 23.2199C63.172 23.6509 63.901 23.3539 64.285 21.8859C65.132 18.6469 59.601 17.8079 54.75 20.4389ZM94.388 19.8469C91.372 21.0659 88.159 25.5049 87.412 29.4849C84.922 42.7569 102.382 44.3019 105.931 31.1249C108.318 22.2589 102.496 16.5709 94.388 19.8469ZM108.627 32.7529C105.435 49.6239 105.442 48.8669 108.481 48.8669C110.372 48.8669 111.107 48.2139 111.574 46.1169C112.904 40.1399 113.124 39.7719 115.007 40.3689C118.378 41.4389 123.733 38.3109 125.941 33.9819C130.832 24.3959 125.62 15.2419 118.223 20.4239C116.211 21.8329 116 21.8329 116 20.4239C116 19.4519 115.108 18.8669 113.627 18.8669C111.369 18.8669 111.125 19.5429 108.627 32.7529ZM130.694 28.7029C128.539 39.9449 128.533 39.8669 131.481 39.8669C133.232 39.8669 134.115 39.2049 134.484 37.6169C135.283 34.1739 138 20.7929 138 20.3019C138 20.0629 136.737 19.8669 135.194 19.8669C132.459 19.8669 132.345 20.0899 130.694 28.7029ZM155 20.5589C155 20.9399 155.758 25.4969 156.685 30.6839L158.37 40.1169L155.062 42.8169C152.466 44.9349 151.903 45.9869 152.449 47.7059C154.173 53.1369 161.802 44.6889 168.875 29.5179C173.777 19.0019 173.659 19.8669 170.185 19.8669C167.612 19.8669 167.165 20.4469 164.983 26.6169C162.375 33.9949 161.315 33.3119 161.1 24.1169C161.005 20.0839 160.847 19.8669 158 19.8669C156.35 19.8669 155 20.1789 155 20.5589ZM99.8 24.0669C102.774 27.0409 99.525 36.2239 95.692 35.6789C92.532 35.2289 92.136 29.2359 95.024 25.5639C97.397 22.5469 98.069 22.3359 99.8 24.0669ZM121.81 27.0589C122.297 31.2589 119.439 35.8669 116.347 35.8669C113.848 35.8669 113.771 35.6989 114.42 31.6429C115.569 24.4579 121.11 21.0199 121.81 27.0589Z" fill="#1B4942"/>
</g>
<defs>
<filter id="filter0_i_110_49" x="0" y="0" width="172.687" height="53.358" filterUnits="userSpaceOnUse" color-interpolation-filters="sRGB">
<feFlood flood-opacity="0" result="BackgroundImageFix"/>
<feBlend mode="normal" in="SourceGraphic" in2="BackgroundImageFix" result="shape"/>
<feColorMatrix in="SourceAlpha" type="matrix" values="0 0 0 0 0 0 0 0 0 0 0 0 0 0 0 0 0 0 127 0" result="hardAlpha"/>
<feOffset dy="4"/>
<feGaussianBlur stdDeviation="2"/>
<feComposite in2="hardAlpha" operator="arithmetic" k2="-1" k3="1"/>
<feColorMatrix type="matrix" values="0 0 0 0 0 0 0 0 0 0 0 0 0 0 0 0 0 0 0.1 0"/>
<feBlend mode="normal" in2="shape" result="effect1_innerShadow_110_49"/>
</filter>
</defs>
</svg>
