<svg width="146" height="43" viewBox="0 0 146 43" fill="none" xmlns="http://www.w3.org/2000/svg">
<g filter="url(#filter0_i_107_17)">
<path fill-rule="evenodd" clip-rule="evenodd" d="M53.98 2.05755C52.469 4.88055 53.662 7.89655 56.58 8.62855C60.735 9.67155 63.142 6.15855 61.393 1.60155C60.489 -0.753446 55.314 -0.435447 53.98 2.05755ZM130.011 1.50655C126.876 5.28355 132.736 11.1436 136.513 8.00855C138.304 6.52255 138.458 2.87755 136.8 1.21955C135.142 -0.438446 131.497 -0.284448 130.011 1.50655ZM0 27.0196V42.0196H4H8V27.0196V12.0196H4H0V27.0196ZM15 27.0196V42.0196H19H23V32.0196C23 21.3836 24.396 18.0196 28.809 18.0196C33.472 18.0196 34.481 20.2626 34.841 31.4376L35.182 42.0196H38.591H42V29.9426C42 17.9276 41.985 17.8506 39.077 14.9426C35.38 11.2456 28.75 10.8556 24.635 14.0926L22 16.1646V14.0926C22 12.3906 21.374 12.0196 18.5 12.0196H15V27.0196ZM46 15.5196C46 18.9366 46.095 19.0196 50 19.0196H54V30.5196V42.0196H58H62V30.5196V19.0196H66C69.905 19.0196 70 18.9366 70 15.5196V12.0196H58H46V15.5196ZM75 23.4726C75 30.2226 75.491 36.0026 76.195 37.5476C79.171 44.0806 89.985 44.6976 94.235 38.5776C94.644 37.9876 94.976 38.5146 94.985 39.7696C94.998 41.6716 95.542 42.0196 98.5 42.0196H102V26.9596V11.8986L98.25 12.2096L94.5 12.5196L94 22.6216C93.45 33.7256 92.423 36.0196 88 36.0196C83.534 36.0196 82.579 33.7906 82.157 22.3906L81.773 12.0196H78.387H75V23.4726ZM109 27.0196V42.0196H113H117V27.0196V12.0196H113H109V27.0196ZM122 15.4876C122 18.9416 122.088 19.0196 126 19.0196H130V30.5196V42.0196H134H138V30.5196V19.0196H142.063C146.045 19.0196 146.12 18.9546 145.813 15.7696L145.5 12.5196L133.75 12.2376L122 11.9566V15.4876Z" fill="#1B4942"/>
</g>
<defs>
<filter id="filter0_i_107_17" x="0" y="0" width="145.923" height="46.8275" filterUnits="userSpaceOnUse" color-interpolation-filters="sRGB">
<feFlood flood-opacity="0" result="BackgroundImageFix"/>
<feBlend mode="normal" in="SourceGraphic" in2="BackgroundImageFix" result="shape"/>
<feColorMatrix in="SourceAlpha" type="matrix" values="0 0 0 0 0 0 0 0 0 0 0 0 0 0 0 0 0 0 127 0" result="hardAlpha"/>
<feOffset dy="4"/>
<feGaussianBlur stdDeviation="2"/>
<feComposite in2="hardAlpha" operator="arithmetic" k2="-1" k3="1"/>
<feColorMatrix type="matrix" values="0 0 0 0 0 0 0 0 0 0 0 0 0 0 0 0 0 0 0.1 0"/>
<feBlend mode="normal" in2="shape" result="effect1_innerShadow_107_17"/>
</filter>
</defs>
</svg>
