<svg width="265" height="50" viewBox="0 0 265 50" fill="none" xmlns="http://www.w3.org/2000/svg">
<mask id="path-1-inside-1_107_15" fill="white">
<path fill-rule="evenodd" clip-rule="evenodd" d="M0.208596 0.290397C-0.207374 0.741775 0.0560942 24.4225 0.497172 26.2118C0.686249 26.9795 0.93205 28.0173 1.04333 28.5181C1.15491 29.0189 1.36941 29.4976 1.52005 29.5814C1.671 29.6654 1.79437 29.8999 1.79437 30.1023C1.79437 30.6586 4.47803 34.9385 5.91874 36.6798C7.73264 38.8722 12.8591 43.4007 14.6743 44.414C15.0062 44.5994 16.4634 45.4237 17.9124 46.2461C21.3809 48.2138 22.9614 48.7656 24.4722 48.5356C25.1247 48.4365 25.7368 48.2406 25.8332 48.1004C25.9293 47.9603 26.2787 47.8456 26.6097 47.8456C26.9407 47.8456 27.2113 47.7507 27.2113 47.6345C27.2113 47.5184 27.6648 47.2435 28.2187 47.0232C33.9301 44.7529 42.0874 37.2933 44.8929 31.7752C46.4725 28.6683 46.7607 27.8267 47.3354 24.6444C47.7231 22.4967 47.791 0.996356 47.4116 0.458164C47.0688 -0.0281069 0.654323 -0.193361 0.208596 0.290397ZM51.947 0.703532C51.2338 1.10215 51.8959 1.87957 53.2517 2.2352C55.9263 2.93697 55.8677 2.62908 55.9855 16.5813C56.1269 33.3161 55.9902 34.1261 52.9339 34.6892C52.0527 34.8514 51.8534 35.0149 51.8534 35.5746V36.261L58.7073 36.3361C64.529 36.3998 65.6201 36.3473 65.9518 35.9872C66.5016 35.3907 65.9208 34.8388 64.5287 34.6353C62.1175 34.283 61.6172 32.669 61.6172 25.2443C61.6172 19.4079 61.5255 19.6332 63.7681 19.9668C70.5832 20.9801 77.8327 19.0021 80.1062 15.5083C83.6699 10.032 80.4652 3.67252 73.0078 1.42261C71.0665 0.836684 52.8227 0.213911 51.947 0.703532ZM177.392 0.670035C171.275 0.795371 170.567 0.858737 170.475 1.28806C170.404 1.62052 170.64 1.81928 171.246 1.93903C175.023 2.68407 174.909 2.20366 174.909 17.2792C174.909 24.188 174.791 30.5843 174.647 31.4932C174.351 33.3702 173.186 34.7257 171.871 34.7257C170.832 34.7257 170.203 35.4158 170.724 35.9819C171.305 36.6122 198.342 36.6122 199.042 35.9816C199.848 35.2556 201.797 28.7654 201.334 28.3484C200.939 27.9922 199.861 28.4277 199.86 28.9433C199.86 29.6319 198.056 32.6542 197.242 33.33L196.401 34.0279H189.115H181.828L181.228 33.3599C180.648 32.7156 180.63 32.1841 180.713 18.3762C180.81 2.05041 180.684 2.79768 183.443 2.18579C184.919 1.85836 185.196 1.55883 184.599 0.938014C184.27 0.595503 183.118 0.552794 177.392 0.670035ZM69.096 2.74297C76.5138 4.7704 78.0515 14.4986 71.3947 17.2834C69.1608 18.2182 65.086 18.5392 62.7796 17.9622L61.6172 17.6716V10.1945C61.6172 6.08182 61.7102 2.63326 61.824 2.5311C62.2049 2.18775 67.6451 2.34658 69.096 2.74297ZM6.72464 3.43943C7.0284 3.6125 7.17192 4.30981 7.19795 5.73819C7.24321 8.217 6.87311 8.76524 5.15592 8.76524H3.96411V6.42657C3.96411 3.64461 5.04092 2.47945 6.72464 3.43943ZM10.7105 3.67503C11.1425 4.06416 11.2563 4.63501 11.2529 6.3967L11.2482 8.62567L10.2117 8.715C8.58628 8.85541 8.13125 8.27534 8.0426 5.95146C7.94465 3.38919 9.20186 2.31643 10.7105 3.67503ZM22.097 3.46149C22.2023 3.61502 22.0709 3.74063 21.8053 3.74063C21.5396 3.74063 21.322 3.61502 21.322 3.46149C21.322 3.30796 21.4532 3.18234 21.6137 3.18234C21.7743 3.18234 21.9916 3.30796 22.097 3.46149ZM38.9168 3.4841C39.3681 3.73728 39.4381 4.13116 39.3504 5.92662C39.228 8.44144 38.9695 8.82303 37.4668 8.7097L36.3553 8.62567L36.3143 6.42936C36.2613 3.60581 37.2129 2.52886 38.9168 3.4841ZM42.7597 3.55305C43.2687 3.9017 43.4221 4.93454 43.3583 7.57888C43.33 8.73538 43.3031 8.76524 42.2824 8.76524C40.8311 8.76524 40.5949 8.37863 40.5137 5.8733C40.4294 3.27558 41.1969 2.48253 42.7597 3.55305ZM18.5324 3.74063C18.5324 3.89416 18.3148 4.01978 18.0491 4.01978C17.7835 4.01978 17.6521 3.89416 17.7575 3.74063C17.8629 3.5871 18.0801 3.46149 18.2407 3.46149C18.4013 3.46149 18.5324 3.5871 18.5324 3.74063ZM24.064 4.17973C24.6018 4.42147 25.0416 4.76789 25.0416 4.95017C25.0416 5.13217 25.3206 5.43811 25.6615 5.62989C26.0025 5.82166 26.2815 6.17645 26.2815 6.41847C26.2815 6.69259 25.7852 6.38916 24.9641 5.6137C24.2394 4.92895 23.3678 4.23137 23.0268 4.06332C22.0585 3.58571 22.9695 3.68815 24.064 4.17973ZM21.2098 4.38378C21.3282 4.49069 21.6884 4.57807 22.0098 4.57807C22.3316 4.57807 23.8526 5.69716 25.3903 7.06497C28.6511 9.96529 29.6669 10.4722 30.8869 9.80757C32.2876 9.04495 31.8022 7.21655 30.2933 7.5719C29.6427 7.72515 29.5909 7.65034 29.8792 6.97369C29.9827 6.73083 30.2577 6.53208 30.4901 6.53208C30.7229 6.53208 31.0282 6.13235 31.1686 5.64384C31.6203 4.07505 32.0747 4.44436 32.3347 6.59098C32.6419 9.12534 32.609 9.30316 31.6745 10.161C30.4405 11.2935 28.0538 11.1025 24.8051 9.61133C23.3963 8.96483 21.862 8.34457 21.3955 8.23319C20.7781 8.08581 20.5205 7.82648 20.4492 7.28131C20.355 6.56279 20.7867 6.25685 21.1491 6.78499C21.2446 6.924 21.5806 6.97732 21.8961 6.90279C22.2113 6.82854 22.6896 6.96615 22.9583 7.20817C23.2274 7.45047 23.5535 7.64866 23.683 7.64866C23.8126 7.64866 24.5156 8.24296 25.2456 8.96902C26.2427 9.9611 26.6608 10.2101 26.9277 9.96976C27.1946 9.72941 26.7681 9.19289 25.2115 7.81196L23.1403 5.97379L20.9138 5.96961C18.5807 5.96514 17.7466 5.72368 17.9707 5.11821C18.214 4.46138 20.6761 3.90309 21.2098 4.38378ZM3.31969 5.48529C3.29645 6.62029 3.28157 6.63816 2.9806 5.8948C2.80733 5.46742 2.7444 4.9337 2.84018 4.70843C3.15479 3.97037 3.34449 4.27771 3.31969 5.48529ZM12.6431 4.99678C12.6431 5.20894 12.5036 5.46017 12.3331 5.55508C12.1567 5.65333 12.0231 5.41299 12.0231 4.99678C12.0231 4.58058 12.1567 4.34024 12.3331 4.43849C12.5036 4.5334 12.6431 4.78463 12.6431 4.99678ZM35.5803 5.18967C35.5803 6.02683 35.554 6.04777 35.1411 5.53944C34.8309 5.15757 34.7964 4.89545 35.024 4.64869C35.501 4.13088 35.5803 4.20792 35.5803 5.18967ZM17.1115 5.28179C17.2194 5.66869 17.1642 6.22614 16.9891 6.52092C16.5756 7.21711 17.0619 7.50044 17.9422 7.07614C18.9555 6.58763 19.8057 7.40274 19.0584 8.14638C18.6821 8.52043 18.634 8.74515 18.8817 8.96818C19.0689 9.13679 19.1278 9.4123 19.0125 9.58035C18.6926 10.0465 16.9826 10.7768 16.9826 10.4474C16.9826 10.2899 17.1918 10.161 17.4475 10.161C17.9518 10.161 18.078 9.72774 17.644 9.48628C17.4962 9.40393 17.1301 9.58091 16.8301 9.87931C15.814 10.8904 15.2331 10.1978 15.2669 8.01546C15.3066 5.45598 16.6184 3.51201 17.1115 5.28179ZM44.8792 4.98032C44.8792 5.20168 44.7398 5.46017 44.5693 5.55508C44.3988 5.64998 44.2593 5.46882 44.2593 5.15283C44.2593 4.83683 44.3988 4.57807 44.5693 4.57807C44.7398 4.57807 44.8792 4.75895 44.8792 4.98032ZM3.24592 7.422C3.14705 7.64448 3.07359 7.57832 3.05871 7.25312C3.04538 6.9589 3.11853 6.7942 3.22144 6.88688C3.32434 6.97955 3.3355 7.22046 3.24592 7.422ZM16.2061 8.03388C15.5511 8.46516 15.8292 9.04439 16.6909 9.04439C17.0799 9.04439 17.2925 8.8529 17.2925 8.50257C17.2925 7.76925 16.879 7.59088 16.2061 8.03388ZM3.69196 9.60268C3.86182 9.60268 3.91018 9.73444 3.79983 9.8955C3.49203 10.3438 2.72426 9.64567 2.72426 8.9171C2.72426 7.93227 3.17928 7.78768 3.28622 8.73845C3.33984 9.21383 3.52241 9.60268 3.69196 9.60268ZM12.6431 9.0268C12.6431 9.64623 11.8511 10.3084 11.5808 9.91476C11.4776 9.7643 11.535 9.56248 11.7082 9.4659C11.8815 9.36959 12.0231 9.03937 12.0231 8.73231C12.0231 8.42525 12.1626 8.25162 12.3331 8.34653C12.5036 8.44144 12.6431 8.74738 12.6431 9.0268ZM35.6984 9.3227L35.9055 10.2986L35.2261 9.6867C34.6529 9.17056 34.6102 9.00587 34.9527 8.63405C35.4421 8.10283 35.439 8.10004 35.6984 9.3227ZM44.6217 9.4712C44.4183 9.87317 44.1081 10.1096 43.9211 10.0058C43.6803 9.87178 43.6806 9.73304 43.9224 9.51531C44.1077 9.34838 44.2593 8.96065 44.2593 8.65359C44.2593 8.22649 44.3449 8.17234 44.6229 8.42273C44.9009 8.67313 44.9006 8.91961 44.6217 9.4712ZM86.0024 14.0606C85.0089 14.3465 83.9516 14.7794 83.6535 15.0226C83.355 15.2657 82.9678 15.4647 82.7927 15.4647C82.0897 15.4647 79.19 18.6445 78.2713 20.4229C76.2199 24.3935 77.1548 30.1307 80.3337 33.0796C85.211 37.604 93.7437 38.0802 98.5295 34.0952C100.096 32.7907 100.673 31.989 100.673 31.1153C100.673 30.2516 100.367 30.3875 98.3404 32.1503C95.3301 34.7696 92.4744 35.5822 89.5359 34.656C85.5697 33.4057 82.3848 28.5469 82.3848 23.7464V23.0016H91.0259C100.714 23.0016 100.604 23.0243 100.223 21.1205C99.155 15.7802 92.1362 12.2956 86.0024 14.0606ZM105.012 13.9359C101.16 14.3551 101.602 14.2331 101.602 14.8766C101.602 15.4717 102.179 15.7439 103.44 15.7439C105.375 15.7439 105.467 16.121 105.572 24.4959C105.694 34.2244 105.679 34.2732 102.455 34.8603C101.503 35.0336 101.263 35.9445 102.093 36.2312C103.308 36.6513 113.945 36.4112 114.454 35.9523C115.152 35.324 114.535 34.7257 113.188 34.7257C110.873 34.7257 110.432 32.9537 110.638 24.4797L110.746 19.9827L111.706 18.9099C114.645 15.6266 119.71 15.1476 121.572 17.977C122.179 18.8993 122.215 19.3661 122.215 26.3062V33.6583L121.483 34.192C121.081 34.4857 120.43 34.7257 120.036 34.7257C118.481 34.7257 117.613 35.8102 118.831 36.2312C119.101 36.3244 124.814 36.4006 131.528 36.4006C143.081 36.4006 143.752 36.373 144.042 35.885C144.44 35.2159 143.915 34.7257 142.8 34.7257C142.342 34.7257 141.637 34.4857 141.235 34.1926C140.507 33.6619 140.503 33.6251 140.41 26.8097L140.317 19.9604L141.96 18.4678C145.392 15.3492 149.389 15.173 151.225 18.0594C151.961 19.2162 151.971 19.3381 151.971 26.4111C151.971 34.5276 152.004 34.4142 149.58 34.7056C148.417 34.8455 148.252 34.9521 148.252 35.5632V36.261H154.572C160.295 36.261 160.925 36.2141 161.237 35.7647C161.674 35.1327 161.068 34.7361 159.655 34.7299C157.509 34.7207 157.396 34.3282 157.396 26.8988C157.396 20.4109 157.295 19.5682 156.267 17.4899C154.051 13.0122 146.673 12.3104 141.978 16.1305C140.369 17.4394 140.348 17.4307 140.348 15.4812C140.348 14.569 140.211 13.7466 140.043 13.6531C139.479 13.3393 131.853 14.1209 131.359 14.5433C130.789 15.0301 131.639 15.7439 132.788 15.7439C135.231 15.7439 135.394 16.3337 135.357 25.0115C135.317 34.5167 135.326 34.4921 132.173 34.673C127.705 34.9292 127.639 34.8084 127.639 26.3757C127.639 20.5044 127.583 19.8152 126.979 18.3625C124.784 13.08 117.395 11.9483 112.296 16.1137C110.723 17.3992 110.715 17.3978 110.715 15.8114C110.715 13.2589 110.844 13.3011 105.012 13.9359ZM208.632 14.0176C205.454 15.197 202.954 17.6658 202.851 19.7262C202.787 21.0021 203.79 20.9594 204.59 19.6519C207.923 14.2035 215.359 15.3302 215.359 21.2835C215.359 22.9316 215.226 23.0413 212.259 23.8296C204.049 26.0114 202.235 27.2648 202.203 30.7758C202.154 36.0938 209.601 38.787 214.141 35.0931L215.378 34.0871L216.471 35.2374C218.185 37.0407 220.357 37.3048 222.598 35.9827C224.633 34.7821 225.513 31.4422 223.623 32.0954C223.363 32.185 223.009 32.6249 222.836 33.0732C222.503 33.9341 221.666 34.1529 221 33.5533C220.732 33.3113 220.628 31.3405 220.628 26.4432C220.628 18.8254 220.376 17.7621 218.11 15.8279C215.783 13.8421 211.374 12.9999 208.632 14.0176ZM46.3627 18.5353C46.4291 21.9856 46.3274 23.6314 45.957 25.0952C45.3116 27.6472 44.1502 31.0938 43.9348 31.0955C43.8418 31.0963 42.2886 29.8092 40.483 28.2356C38.6778 26.6621 35.8946 24.2547 34.2983 22.8864C32.702 21.5177 29.7679 18.963 27.778 17.2088C25.7415 15.4136 23.9583 14.0609 23.6979 14.1142C23.4437 14.1661 20.3484 16.7209 16.8192 19.7915C2.31696 32.4094 3.69134 31.4115 3.07606 29.7709C2.86002 29.1953 2.56493 28.4729 2.42018 28.1658C1.68929 26.6141 1.41342 24.636 1.26402 19.8705C1.17413 16.997 1.18281 14.4523 1.28355 14.2158C1.44628 13.8337 3.93838 13.794 23.8702 13.8577L46.2741 13.9294L46.3627 18.5353ZM221.249 14.3015C220.163 14.6265 221.218 15.7439 222.611 15.7439C223.725 15.7439 224.846 17.0877 226.218 20.0706C227.927 23.7833 228.375 24.7234 228.713 25.3007C228.87 25.5673 228.997 25.9142 228.997 26.0714C228.997 26.2288 229.264 26.8899 229.59 27.5408C229.916 28.1915 230.561 29.5406 231.024 30.5386C231.487 31.5365 232.047 32.7299 232.268 33.1904C232.488 33.651 232.758 34.3495 232.867 34.7425C233.27 36.1991 234.325 37.0385 235.119 36.5335C235.503 36.2895 235.817 35.8708 235.817 35.6031C235.817 35.3354 235.942 34.9971 236.096 34.8514C236.25 34.7056 236.589 34.0209 236.851 33.33C237.112 32.6391 238.45 29.5803 239.826 26.5323C241.201 23.4843 242.326 20.788 242.326 20.5407C242.326 19.5735 243.213 20.9416 244.645 24.1182C245.442 25.8838 246.306 27.768 246.566 28.3054C246.826 28.8428 247.145 29.5336 247.276 29.8407C247.546 30.4744 248.726 33.0495 249.325 34.3112C249.545 34.774 249.87 35.4965 250.047 35.9163C250.389 36.7269 251.325 36.9424 251.846 36.3308C252.155 35.9679 252.838 34.4681 255.055 29.2824C255.777 27.5936 256.626 25.6848 256.941 25.0408C257.256 24.3968 257.514 23.7877 257.514 23.6872C257.514 23.5867 257.707 23.1088 257.944 22.6251C258.18 22.1413 258.696 20.9918 259.091 20.0706C260.504 16.772 261.28 16.0384 263.791 15.6289C265.137 15.4095 265.455 14.4947 264.256 14.289C263.699 14.1935 257.077 14.2195 255.422 14.3239C254.37 14.39 255.12 15.3612 256.584 15.8293C257.987 16.2782 258.134 16.4063 258.134 17.1801C258.134 17.8858 256.258 22.6254 254.559 26.2118C254.341 26.6724 253.92 27.65 253.623 28.3844C252.857 30.277 252.801 30.2469 251.512 27.2421C250.874 25.7543 250.22 24.2544 250.058 23.9089C249.521 22.7599 249.065 21.7516 248.825 21.1872C248.695 20.8801 248.296 19.9777 247.937 19.1815C246.975 17.045 247.344 15.7439 248.912 15.7439C250.276 15.7439 251.043 14.5522 249.842 14.2987C249.42 14.2097 239.578 14.2345 238.529 14.3275C237.858 14.3869 238.371 15.47 239.149 15.6364C240.093 15.8385 240.989 16.454 241.438 17.2108C241.712 17.6722 240.698 20.4424 239.046 23.7417C238.804 24.2254 238.606 24.7089 238.606 24.8161C238.606 24.9233 238.41 25.4068 238.17 25.8905C237.931 26.3743 237.489 27.3982 237.189 28.1658C236.515 29.8918 236.206 30.2335 235.949 29.5384C235.839 29.2442 235.556 28.6074 235.318 28.1237C235.081 27.6399 234.887 27.1578 234.887 27.0523C234.887 26.9468 234.468 26.0463 233.957 25.0511C233.445 24.056 233.027 23.1234 233.027 22.9785C233.027 22.8336 232.885 22.4967 232.713 22.2301C231.956 21.0616 230.547 17.5519 230.547 16.8334C230.547 16.1559 230.721 15.9985 231.787 15.7109C232.989 15.3866 233.596 14.3936 232.639 14.3172C231.602 14.2343 221.52 14.2206 221.249 14.3015ZM91.0424 15.4591C93.0698 15.9828 94.5629 17.7188 94.9414 19.9925L95.1596 21.3025L89.4377 21.3846C82.1982 21.4881 82.5742 21.5604 82.8308 20.1139C83.4898 16.401 86.9955 14.414 91.0424 15.4591ZM25.8698 19.011C28.0402 20.2917 27.9357 23.5619 25.6863 24.7586C21.6205 26.9214 17.9568 21.9258 21.5837 19.1648C22.596 18.3941 24.6966 18.3187 25.8698 19.011ZM215.359 28.3333V31.9901L214.352 32.8806C211.247 35.6257 207.3 34.1644 207.3 30.2695C207.3 28.661 207.913 27.6251 209.384 26.7511C210.107 26.3212 214.378 24.8002 215.126 24.7058C215.254 24.6896 215.359 26.3221 215.359 28.3333ZM14.8776 28.0679C17.4171 29.6964 16.9717 33.004 14.0791 33.9988C10.3184 35.2924 7.39292 30.8758 10.3788 28.4129C11.7764 27.2603 13.4214 27.1338 14.8776 28.0679ZM36.7009 28.0896C38.1078 29.0675 38.3496 29.472 38.3601 30.866C38.3837 33.9916 34.2915 35.4055 31.9634 33.0763C29.1585 30.27 33.406 25.7992 36.7009 28.0896ZM26.0022 30.478C36.4132 40.413 36.8484 40.8669 35.9647 40.8669C35.8351 40.8669 35.3817 41.1531 34.9573 41.5028C34.5327 41.8529 33.6973 42.4433 33.1006 42.8154C32.504 43.1875 31.946 43.5735 31.8608 43.6729C31.2827 44.3484 24.6346 47.5664 23.8172 47.5664C23.5318 47.5664 22.7209 47.3152 22.0151 47.0081C21.3093 46.7011 20.5859 46.4498 20.407 46.4498C20.2285 46.4498 20.0822 46.3242 20.0822 46.1707C20.0822 46.0172 19.9415 45.8916 19.7694 45.8916C19.2921 45.8916 14.5094 43.0105 13.108 41.8788C12.4261 41.3281 11.7634 40.8753 11.6357 40.8722C10.9978 40.8577 11.6419 39.9991 14.1154 37.5666C18.3015 33.4498 23.5439 28.5845 23.7934 28.5845C23.9171 28.5845 24.9111 29.4365 26.0022 30.478ZM51.8367 40.0538C51.7223 40.2207 51.7561 40.4722 51.9123 40.6129C52.2415 40.9094 264.474 40.8332 264.803 40.5367C264.92 40.4318 264.923 40.2118 264.811 40.0482C264.518 39.622 52.1293 39.6275 51.8367 40.0538ZM111.211 42.7657C109.898 43.5688 109.373 44.313 109.362 45.3849C109.356 45.9507 109.225 46.7136 109.07 47.0804C108.633 48.1158 108.543 49.8825 108.921 49.9961C109.273 50.1016 110.281 48.0404 110.281 47.2175C110.281 46.5685 111.262 44.775 111.617 44.775C111.776 44.775 111.739 44.5921 111.532 44.3685C111.042 43.8368 111.418 43.3122 112.141 43.5188C112.864 43.7254 113.24 43.2009 112.75 42.6691C112.288 42.1678 112.178 42.1745 111.211 42.7657ZM181.263 42.7311C179.033 43.5691 178.48 46.2639 180.236 47.7297C181.627 48.8904 185.293 48.5032 185.293 47.1954C185.293 46.8367 184.126 47.0109 183.743 47.4268C182.689 48.5702 180.643 47.2775 180.643 45.4684C180.643 43.7137 182.662 42.6256 183.743 43.798C184.542 44.665 185.377 44.0936 184.706 43.1395C184.418 42.73 182.022 42.4458 181.263 42.7311ZM233.182 42.7654C231.205 43.1261 231.17 44.3412 233.092 45.8893C234.216 46.7951 234.273 46.9102 233.85 47.4232C233.406 47.962 233.375 47.9631 232.764 47.4657C232.022 46.8605 231.468 47.0578 231.697 47.8458C232.062 49.1 235.507 48.2107 235.507 46.8624C235.507 46.6285 234.937 45.8804 234.24 45.1998C232.938 43.9283 232.813 43.1074 234.009 43.6835C234.434 43.8884 234.746 43.8968 234.955 43.7086C235.594 43.1333 234.463 42.532 233.182 42.7654ZM52.2421 44.9698C52.4225 47.7289 52.8586 48.4039 54.4608 48.4039C56.3079 48.4039 56.974 47.7442 57.1383 45.7517C57.2145 44.8305 57.3494 43.7946 57.438 43.449C57.5719 42.9284 57.469 42.821 56.837 42.821C56.0072 42.821 55.528 43.2349 56.0329 43.516C56.748 43.9141 56.3962 46.6542 55.5531 47.2515C54.0879 48.2894 53.379 47.22 53.6072 44.3144C53.7073 43.0348 53.6689 42.9558 52.9064 42.8762L52.0995 42.7916L52.2421 44.9698ZM116.156 42.8907C116.148 42.929 116.112 44.1907 116.078 45.6942L116.016 48.4279L116.791 48.3461C117.545 48.2665 117.566 48.2054 117.566 46.0311C117.566 43.7608 117.845 43.1286 118.46 44.0065C118.715 44.3705 118.697 44.6438 118.39 45.0859C117.717 46.0576 118.453 46.3736 119.402 45.5197C120.89 44.1796 119.965 42.821 117.566 42.821C116.798 42.821 116.164 42.8525 116.156 42.8907ZM210.617 42.9971C210.51 43.0942 210.566 43.4166 210.742 43.7137C211.122 44.3521 211.045 47.0014 210.633 47.4844C210.109 48.0993 210.712 48.3826 212.503 48.3642C214.203 48.3466 214.724 48.1113 214.734 47.3571C214.741 46.8655 213.912 46.9213 213.697 47.4268C213.599 47.6571 213.31 47.8456 213.055 47.8456C212.216 47.8456 211.859 46.739 212.046 44.7256C212.217 42.8835 212.2 42.821 211.518 42.821C211.13 42.821 210.725 42.9002 210.617 42.9971ZM59.0542 43.5476C58.9513 43.64 58.9956 44.0199 59.1524 44.3914C59.3093 44.763 59.3607 45.8176 59.2668 46.7354C59.105 48.314 59.1326 48.4039 59.7767 48.4039C60.4143 48.4039 60.4443 48.3154 60.2515 47.0081C59.9986 45.2894 60.2339 45.2646 61.6188 46.8627C63.1894 48.6752 63.6202 48.4577 63.6844 45.8206C63.7374 43.6503 63.5985 43.2458 62.929 43.6185C62.6535 43.7717 62.651 44.0715 62.9182 44.8559C63.4584 46.4412 62.9733 46.4348 61.3404 44.8353C59.9131 43.437 59.4599 43.1819 59.0542 43.5476ZM65.8017 43.5599C65.2054 43.7491 65.4989 48.2643 66.1074 48.2643C66.5599 48.2643 66.6473 47.9268 66.7022 45.9706C66.7642 43.7714 66.5912 43.3092 65.8017 43.5599ZM68.2619 43.7432C68.1767 43.9434 68.46 44.8263 68.8915 45.7051C69.3232 46.5841 69.6763 47.4966 69.6763 47.7334C69.6763 48.0105 69.9035 48.1317 70.3145 48.0745C71.3941 47.9235 73.1336 43.7357 72.2338 43.4541C71.8163 43.3234 71.7437 43.4543 71.227 45.2718C70.8259 46.6824 70.5578 46.6237 69.9766 44.9983C69.4339 43.4806 68.6258 42.8891 68.2619 43.7432ZM84.477 43.7036C83.2533 44.1061 83.2927 45.3615 84.5545 46.1707C85.5055 46.7806 85.7423 47.39 85.1549 47.7169C84.9736 47.8177 84.5787 47.6993 84.2774 47.4536C83.6321 46.9277 83.3187 47.1011 83.5394 47.8618C83.7486 48.5817 85.4987 48.6023 86.2113 47.8933C86.9586 47.1497 86.8445 46.5506 85.7944 45.7079C85.2829 45.2975 84.8645 44.7942 84.8645 44.5893C84.8645 44.1385 85.2389 44.1073 85.6974 44.5201C86.197 44.9701 86.5615 44.294 86.0932 43.7857C85.6673 43.3237 85.6372 43.322 84.477 43.7036ZM88.4002 43.6003C88.2084 43.7142 88.0624 44.7806 88.0562 46.1154C88.0463 48.293 88.0841 48.4279 88.6786 48.3486C89.2573 48.2715 89.3094 48.0756 89.2833 46.0682C89.2551 43.8705 89.0257 43.2293 88.4002 43.6003ZM90.7373 43.784C89.9869 44.4623 90.4395 44.9461 91.3942 44.4861C92.0745 44.1581 92.0752 44.1603 91.9961 46.8208C91.9499 48.3737 91.9806 48.4438 92.6675 48.3561C93.3565 48.2682 93.3829 48.1775 93.2828 46.2405C93.1727 44.1204 93.2152 44.0389 94.1838 44.5056C94.681 44.7454 94.7833 44.7018 94.7833 44.2513C94.7833 43.6461 91.3309 43.2475 90.7373 43.784ZM95.8362 43.7723C95.733 44.0143 95.9423 44.66 96.3009 45.2074C96.6719 45.7732 96.953 46.6857 96.953 47.3227C96.953 48.3246 97.0265 48.4332 97.6505 48.3536C98.2208 48.2805 98.3299 48.1149 98.2493 47.4436C98.1517 46.6277 98.6154 45.5292 99.3553 44.8249C99.8109 44.3909 99.8611 43.7572 99.4579 43.5328C99.0943 43.3304 98.1929 44.1304 98.1929 44.6552C98.1929 45.3056 97.6371 45.1102 97.2026 44.3071C96.7175 43.4113 96.0941 43.1674 95.8362 43.7723ZM126.107 43.6355C125.749 43.8454 125.73 44.0369 126.014 44.5977C126.247 45.0586 126.283 45.7838 126.119 46.7198C125.862 48.1805 126.06 48.5811 126.893 48.293C127.249 48.1699 127.281 48.0072 127.033 47.589C126.855 47.2898 126.715 46.6282 126.723 46.1193L126.736 45.1937L128.195 46.6592C128.998 47.4654 129.809 48.125 129.997 48.1247C130.415 48.1247 130.823 43.9054 130.439 43.5571C129.846 43.02 129.441 43.729 129.643 44.9475C129.902 46.5009 129.726 46.4822 127.981 44.7719C126.912 43.7237 126.442 43.439 126.107 43.6355ZM132.133 43.6601C132.026 43.8155 132.041 44.2239 132.167 44.5681C132.434 45.2986 132.411 46.605 132.116 47.4933C131.968 47.9394 132.057 48.1694 132.43 48.2981C133.317 48.6046 133.536 48.0533 133.04 46.7591C132.373 45.0139 132.757 44.9868 134.469 46.6592C136.376 48.5231 136.598 48.5024 136.587 46.4616C136.582 45.5468 136.672 44.5316 136.787 44.2055C136.965 43.7019 136.887 43.6277 136.27 43.712C135.809 43.7748 135.589 43.9618 135.667 44.2234C136.327 46.4208 135.933 46.6829 134.443 45.0371C133.269 43.7399 132.424 43.236 132.133 43.6601ZM138.876 43.7954C137.559 44.311 137.582 45.0086 138.953 46.1327C139.55 46.6215 140.038 47.1368 140.038 47.2775C140.038 47.7987 139.361 47.886 138.809 47.4361C138.186 46.928 137.746 47.234 138.055 47.96C138.32 48.5811 140.118 48.537 140.765 47.8933C141.475 47.1865 141.416 46.8903 140.348 45.7947C139.42 44.8431 139.164 44.2167 139.702 44.2167C139.858 44.2167 140.041 44.3646 140.108 44.5452C140.175 44.7258 140.396 44.7811 140.6 44.6678C140.866 44.5196 140.879 44.3105 140.648 43.9205C140.27 43.2846 140.194 43.279 138.876 43.7954ZM142.34 43.7497C142.243 43.9788 142.417 44.586 142.728 45.0988C143.038 45.6116 143.362 46.5336 143.448 47.1477C143.665 48.7137 144.826 48.7944 144.875 47.2465C144.892 46.6868 145.22 45.7729 145.602 45.2157C146.325 44.1628 146.275 43.2765 145.509 43.5414C145.266 43.6254 144.985 44.0629 144.885 44.5137C144.651 45.5644 144.338 45.5423 143.757 44.4344C143.232 43.4323 142.605 43.1291 142.34 43.7497ZM147.924 43.5473C147.724 43.6218 147.622 44.5611 147.661 45.9666L147.726 48.2643L149.165 48.2774C150.749 48.2919 151.571 47.7883 150.915 47.2058C150.618 46.9417 150.448 46.9746 150.134 47.3571C149.212 48.4809 148.62 47.3568 148.79 44.8051C148.868 43.6294 148.631 43.2849 147.924 43.5473ZM151.607 43.8262C151.399 44.3133 153.039 48.1409 153.488 48.2174C153.639 48.2431 153.868 48.0759 153.997 47.8456C156.287 43.7318 156.308 43.6584 155.174 43.6584C154.782 43.6584 154.606 43.8647 154.606 44.3244C154.606 45.094 153.815 46.6031 153.59 46.2611C153.507 46.1347 153.337 45.5915 153.212 45.0541C152.853 43.5107 152.014 42.8692 151.607 43.8262ZM161.906 43.6349C161.81 43.7756 161.849 44.1837 161.994 44.5422C162.14 44.9006 162.202 45.9161 162.134 46.7988C162.021 48.2685 162.064 48.4039 162.648 48.4039C163.353 48.4039 163.395 48.192 163 46.6592C162.608 45.1362 163.599 45.5398 165.058 47.4966C165.872 48.5892 167.095 47.924 166.405 46.7636C166.231 46.4705 166.23 46.1213 166.402 45.8765C166.96 45.0823 166.754 43.6584 166.081 43.6584C165.529 43.6584 165.487 43.7893 165.663 44.9469C165.853 46.2 165.84 46.2268 165.192 45.9142C164.825 45.7375 164.525 45.4996 164.525 45.3857C164.525 45.0614 162.736 43.3792 162.391 43.3792C162.221 43.3792 162.003 43.4943 161.906 43.6349ZM168.632 43.5769C168.364 43.6656 168.245 44.433 168.245 46.0738C168.245 48.3444 168.272 48.439 168.916 48.3536C169.547 48.2696 169.583 48.1311 169.516 46.0311C169.442 43.7385 169.304 43.355 168.632 43.5769ZM191.91 43.8069C191.834 43.9842 191.814 45.0597 191.865 46.1969C191.947 48.0471 192.022 48.2643 192.574 48.2643C193.006 48.2643 193.237 48.0292 193.348 47.4765L193.507 46.6888L194.067 47.5463C194.599 48.3609 195.182 48.6168 195.616 48.226C195.724 48.1281 195.516 47.6722 195.152 47.213C194.617 46.5355 194.56 46.2798 194.852 45.8594C195.322 45.1814 195.309 44.356 194.824 44.0048C194.233 43.5774 192.07 43.4306 191.91 43.8069ZM201.934 43.7614C201.844 43.9719 202.03 44.5274 202.347 44.9963C202.663 45.4653 202.966 46.3923 203.019 47.0564C203.1 48.0647 203.231 48.2791 203.813 48.3536C204.443 48.434 204.511 48.3263 204.517 47.237C204.521 46.4719 204.745 45.776 205.13 45.3333C205.745 44.6248 205.916 43.901 205.546 43.5677C205.228 43.281 204.51 43.9476 204.51 44.5299C204.51 45.3592 203.674 45.1395 203.317 44.2167C202.98 43.3474 202.217 43.0962 201.934 43.7614ZM220.779 43.6645C220.671 43.8217 220.79 44.5438 221.043 45.2696C221.296 45.9957 221.59 46.9431 221.697 47.3755C221.962 48.4541 222.854 48.2545 223.299 47.0171C223.65 46.0442 224.348 45.5211 224.348 46.2313C224.348 47.6351 225.694 48.6319 226.056 47.4966C226.167 47.1511 226.551 46.2075 226.911 45.4C227.387 44.3306 227.472 43.8477 227.223 43.6238C226.741 43.1897 226.208 43.5713 226.208 44.3498C226.208 46.0188 225.573 46.3178 225.01 44.9145C224.794 44.3772 224.428 43.9375 224.197 43.9375C223.965 43.9375 223.615 44.3772 223.418 44.9145C222.971 46.1347 222.601 46.1584 222.322 44.9843C221.994 43.6051 221.254 42.972 220.779 43.6645ZM243.064 43.6146C242.905 43.7153 242.787 44.8029 242.803 46.0311C242.83 48.0432 242.892 48.2643 243.431 48.2643C243.899 48.2643 244.031 48.0678 244.031 47.371C244.031 46.3371 244.552 45.7442 245.25 45.9853C245.581 46.1001 245.735 46.516 245.735 47.2979C245.735 48.3162 245.81 48.4329 246.413 48.3536C247.042 48.2707 247.093 48.1041 247.121 46.0311C247.139 44.8029 247.021 43.7153 246.86 43.6146C246.304 43.2667 245.735 43.7198 245.735 44.5092C245.735 45.4714 245.336 45.7383 244.499 45.3349C244.041 45.1141 243.919 44.8554 244.051 44.383C244.237 43.7162 243.639 43.2508 243.064 43.6146ZM250.7 43.6813C249.477 43.9219 248.215 45.0745 248.215 45.9504C248.215 47.1103 249.672 48.4039 250.978 48.4039C254.046 48.4039 254.874 44.83 252.09 43.6051C251.919 43.53 251.294 43.5643 250.7 43.6813ZM256.993 43.6679C255.5 43.9574 254.933 44.6265 254.958 46.0705C254.998 48.4505 257.918 49.2703 259.603 47.3744C261.198 45.58 259.508 43.1805 256.993 43.6679ZM261.739 43.5995C261.656 43.7206 261.556 44.8196 261.516 46.042L261.444 48.2643H263.121C264.624 48.2643 264.808 48.1992 264.897 47.6362C265.014 46.8954 264.742 46.8406 263.99 47.4542C263.053 48.2174 262.69 47.6638 262.862 45.7358C263.028 43.8666 262.39 42.6512 261.739 43.5995ZM74.2135 45.9613C74.2544 48.185 74.2811 48.2643 74.9884 48.2643C75.6074 48.2643 75.7063 48.1423 75.6276 47.4743C75.5566 46.8725 75.6859 46.6483 76.17 46.5344C77.0038 46.3379 76.988 45.4413 76.1471 45.2434C75.6177 45.1186 75.5278 44.9486 75.688 44.3733C75.8659 43.7352 75.7953 43.6584 75.029 43.6584H74.1708L74.2135 45.9613ZM76.2404 44.1237C76.391 44.8241 77.1154 44.9201 77.1154 44.2398C77.1154 43.8971 76.9152 43.6584 76.6278 43.6584C76.3389 43.6584 76.1809 43.8482 76.2404 44.1237ZM78.863 45.9613C78.9008 48.0077 78.9699 48.2643 79.4829 48.2643C79.8456 48.2643 80.0969 48.0309 80.1592 47.6362C80.2854 46.8356 80.4497 46.8468 81.2004 47.706C81.5355 48.0898 81.939 48.4039 82.0974 48.4039C82.5112 48.4039 82.4514 47.459 82.0125 47.0637C81.723 46.803 81.7292 46.5073 82.0407 45.7319C82.5844 44.3775 81.9077 43.6584 80.0895 43.6584H78.8202L78.863 45.9613ZM121.394 45.6124C121.368 46.6871 121.333 47.7236 121.316 47.9154C121.296 48.1412 121.784 48.2816 122.699 48.3131C124.378 48.3712 125.02 48.0887 124.733 47.4171C124.537 46.9568 124.496 46.9568 123.933 47.4162C123.606 47.6825 123.191 47.8177 123.009 47.7169C122.424 47.3911 122.659 46.7223 123.455 46.4498C124.454 46.1079 124.441 45.671 123.422 45.3221C122.76 45.0954 122.65 44.921 122.808 44.3521C122.976 43.7508 122.898 43.6584 122.221 43.6584C121.465 43.6584 121.439 43.7215 121.394 45.6124ZM123.3 44.0606C123.3 44.5472 123.808 44.8702 124.216 44.6429C124.629 44.4132 124.257 43.6584 123.732 43.6584C123.494 43.6584 123.3 43.8393 123.3 44.0606ZM157.732 44.6963C157.504 45.2769 157.055 46.2477 156.735 46.8535C156.383 47.5212 156.265 48.0558 156.438 48.211C156.79 48.5281 157.396 48.2199 157.396 47.7236C157.396 47.5212 157.586 47.2139 157.817 47.0405C158.067 46.8538 158.175 46.425 158.082 45.9879C157.975 45.479 158.036 45.3115 158.281 45.4477C158.476 45.5566 158.636 45.8698 158.636 46.1442C158.636 47.445 160.097 48.932 160.622 48.166C160.886 47.7814 159.066 43.8052 158.586 43.7192C158.32 43.6715 157.984 44.0567 157.732 44.6963ZM172.584 44.0291C172.584 44.2329 172.235 45.1725 171.809 46.1171C170.931 48.063 170.873 48.4047 171.422 48.4016C171.931 48.3988 172.584 47.105 172.584 46.0987C172.584 45.6375 172.715 45.3732 172.894 45.4728C173.064 45.5677 173.204 45.9518 173.204 46.3267C173.204 46.7016 173.343 47.0081 173.514 47.0081C173.684 47.0081 173.824 47.2633 173.824 47.5751C173.824 48.2512 174.648 48.6104 175.154 48.1549C175.426 47.91 175.421 47.6987 175.133 47.2842C174.925 46.983 174.754 46.5791 174.754 46.3868C174.754 45.5273 173.64 43.6603 173.126 43.6595C172.828 43.6589 172.584 43.825 172.584 44.0291ZM187.772 44.1695C187.772 44.4721 187.425 45.3916 187 46.2128C186.085 47.9843 186.029 48.4829 186.765 48.338C187.063 48.2791 187.27 48.0747 187.224 47.8838C187.179 47.6929 187.358 47.3417 187.622 47.1033C187.888 46.8644 188.023 46.4437 187.925 46.1648C187.827 45.8868 187.892 45.5786 188.069 45.4798C188.266 45.3704 188.392 45.6339 188.392 46.1542C188.392 46.6237 188.522 47.0081 188.68 47.0081C188.839 47.0081 189.014 47.2906 189.068 47.6362C189.201 48.4801 190.562 48.7037 190.562 47.8816C190.562 47.5728 190.422 47.2426 190.252 47.1477C190.081 47.0528 189.942 46.6938 189.942 46.3496C189.942 46.0054 189.814 45.6046 189.658 45.4589C189.502 45.3132 189.328 44.8796 189.271 44.4958C189.138 43.6017 187.772 43.3044 187.772 44.1695ZM197.136 45.9613L197.226 48.2643L198.689 48.3036C200.221 48.3447 201.188 47.8126 200.578 47.2635C200.372 47.0776 200.136 47.1279 199.872 47.4151C199.263 48.075 198.621 47.9374 198.621 47.1477C198.621 46.636 198.786 46.4498 199.241 46.4498C199.654 46.4498 199.861 46.2637 199.861 45.8916C199.861 45.5195 199.654 45.3333 199.241 45.3333C198.769 45.3333 198.623 45.1501 198.631 44.5656C198.64 43.8423 198.666 43.8281 199.081 44.3214C199.592 44.9296 200.566 44.7409 200.287 44.0877C200.157 43.7818 199.665 43.6584 198.575 43.6584H197.046L197.136 45.9613ZM217.329 44.0813C217.23 44.3138 217.221 44.7538 217.31 45.0586C217.398 45.3637 217.357 45.5499 217.218 45.4723C216.797 45.2384 215.541 47.8419 215.913 48.1772C216.293 48.5194 216.909 48.2447 216.909 47.7328C216.909 47.5354 217.187 47.1471 217.527 46.87C218.131 46.3778 218.15 46.3862 218.337 47.2275C218.529 48.0921 219.178 48.554 219.751 48.2347C220.104 48.0387 219.941 47.3347 219.047 45.1822C218.423 43.6799 217.698 43.2154 217.329 44.0813ZM237.196 44.397C235.506 46.0401 236.791 48.3765 239.397 48.3949C240.668 48.4039 241.396 48.0315 241.396 47.371C241.396 46.8619 240.762 46.9188 240.316 47.4679C239.322 48.6928 237.303 46.8113 237.955 45.2677C238.414 44.1807 239.199 43.8915 240.218 44.4339C241.171 44.9408 241.69 44.7328 241.092 44.0838C240.408 43.3418 238.091 43.528 237.196 44.397ZM193.967 45.1074C193.969 45.367 193.832 45.6571 193.662 45.752C193.475 45.8555 193.353 45.4999 193.356 44.8612C193.36 44.0718 193.438 43.906 193.662 44.2167C193.827 44.447 193.964 44.8478 193.967 45.1074ZM252.046 44.8526C252.817 45.7835 252.33 47.8456 251.338 47.8456C250.035 47.8456 249.376 45.8477 250.273 44.6153C250.868 43.7977 251.209 43.8435 252.046 44.8526ZM80.835 44.9145C80.835 45.2984 80.6955 45.6124 80.525 45.6124C80.3545 45.6124 80.215 45.2984 80.215 44.9145C80.215 44.5307 80.3545 44.2167 80.525 44.2167C80.6955 44.2167 80.835 44.5307 80.835 44.9145ZM104.678 45.0326C102.575 46.9269 104.627 49.5986 106.852 47.8615C107.822 47.1036 108.11 45.1102 107.325 44.593C106.443 44.0123 105.668 44.141 104.678 45.0326ZM258.322 44.7052C258.859 45.3425 258.849 46.7323 258.302 47.3825C257.396 48.4591 255.964 47.1326 256.242 45.4728C256.448 44.2331 257.574 43.8178 258.322 44.7052ZM106.481 46.408C105.985 47.4562 105.605 47.8634 105.287 47.6865C104.861 47.4495 104.961 46.5107 105.515 45.5454C106.193 44.366 107.074 45.1532 106.481 46.408ZM76.6486 47.5681C75.9893 48.2244 76.1827 48.5309 77.0922 48.271C77.4508 48.1685 77.7353 47.8484 77.7353 47.5477C77.7353 46.8552 77.3581 46.8624 76.6486 47.5681Z"/>
</mask>
<path fill-rule="evenodd" clip-rule="evenodd" d="M0.208596 0.290397C-0.207374 0.741775 0.0560942 24.4225 0.497172 26.2118C0.686249 26.9795 0.93205 28.0173 1.04333 28.5181C1.15491 29.0189 1.36941 29.4976 1.52005 29.5814C1.671 29.6654 1.79437 29.8999 1.79437 30.1023C1.79437 30.6586 4.47803 34.9385 5.91874 36.6798C7.73264 38.8722 12.8591 43.4007 14.6743 44.414C15.0062 44.5994 16.4634 45.4237 17.9124 46.2461C21.3809 48.2138 22.9614 48.7656 24.4722 48.5356C25.1247 48.4365 25.7368 48.2406 25.8332 48.1004C25.9293 47.9603 26.2787 47.8456 26.6097 47.8456C26.9407 47.8456 27.2113 47.7507 27.2113 47.6345C27.2113 47.5184 27.6648 47.2435 28.2187 47.0232C33.9301 44.7529 42.0874 37.2933 44.8929 31.7752C46.4725 28.6683 46.7607 27.8267 47.3354 24.6444C47.7231 22.4967 47.791 0.996356 47.4116 0.458164C47.0688 -0.0281069 0.654323 -0.193361 0.208596 0.290397ZM51.947 0.703532C51.2338 1.10215 51.8959 1.87957 53.2517 2.2352C55.9263 2.93697 55.8677 2.62908 55.9855 16.5813C56.1269 33.3161 55.9902 34.1261 52.9339 34.6892C52.0527 34.8514 51.8534 35.0149 51.8534 35.5746V36.261L58.7073 36.3361C64.529 36.3998 65.6201 36.3473 65.9518 35.9872C66.5016 35.3907 65.9208 34.8388 64.5287 34.6353C62.1175 34.283 61.6172 32.669 61.6172 25.2443C61.6172 19.4079 61.5255 19.6332 63.7681 19.9668C70.5832 20.9801 77.8327 19.0021 80.1062 15.5083C83.6699 10.032 80.4652 3.67252 73.0078 1.42261C71.0665 0.836684 52.8227 0.213911 51.947 0.703532ZM177.392 0.670035C171.275 0.795371 170.567 0.858737 170.475 1.28806C170.404 1.62052 170.64 1.81928 171.246 1.93903C175.023 2.68407 174.909 2.20366 174.909 17.2792C174.909 24.188 174.791 30.5843 174.647 31.4932C174.351 33.3702 173.186 34.7257 171.871 34.7257C170.832 34.7257 170.203 35.4158 170.724 35.9819C171.305 36.6122 198.342 36.6122 199.042 35.9816C199.848 35.2556 201.797 28.7654 201.334 28.3484C200.939 27.9922 199.861 28.4277 199.86 28.9433C199.86 29.6319 198.056 32.6542 197.242 33.33L196.401 34.0279H189.115H181.828L181.228 33.3599C180.648 32.7156 180.63 32.1841 180.713 18.3762C180.81 2.05041 180.684 2.79768 183.443 2.18579C184.919 1.85836 185.196 1.55883 184.599 0.938014C184.27 0.595503 183.118 0.552794 177.392 0.670035ZM69.096 2.74297C76.5138 4.7704 78.0515 14.4986 71.3947 17.2834C69.1608 18.2182 65.086 18.5392 62.7796 17.9622L61.6172 17.6716V10.1945C61.6172 6.08182 61.7102 2.63326 61.824 2.5311C62.2049 2.18775 67.6451 2.34658 69.096 2.74297ZM6.72464 3.43943C7.0284 3.6125 7.17192 4.30981 7.19795 5.73819C7.24321 8.217 6.87311 8.76524 5.15592 8.76524H3.96411V6.42657C3.96411 3.64461 5.04092 2.47945 6.72464 3.43943ZM10.7105 3.67503C11.1425 4.06416 11.2563 4.63501 11.2529 6.3967L11.2482 8.62567L10.2117 8.715C8.58628 8.85541 8.13125 8.27534 8.0426 5.95146C7.94465 3.38919 9.20186 2.31643 10.7105 3.67503ZM22.097 3.46149C22.2023 3.61502 22.0709 3.74063 21.8053 3.74063C21.5396 3.74063 21.322 3.61502 21.322 3.46149C21.322 3.30796 21.4532 3.18234 21.6137 3.18234C21.7743 3.18234 21.9916 3.30796 22.097 3.46149ZM38.9168 3.4841C39.3681 3.73728 39.4381 4.13116 39.3504 5.92662C39.228 8.44144 38.9695 8.82303 37.4668 8.7097L36.3553 8.62567L36.3143 6.42936C36.2613 3.60581 37.2129 2.52886 38.9168 3.4841ZM42.7597 3.55305C43.2687 3.9017 43.4221 4.93454 43.3583 7.57888C43.33 8.73538 43.3031 8.76524 42.2824 8.76524C40.8311 8.76524 40.5949 8.37863 40.5137 5.8733C40.4294 3.27558 41.1969 2.48253 42.7597 3.55305ZM18.5324 3.74063C18.5324 3.89416 18.3148 4.01978 18.0491 4.01978C17.7835 4.01978 17.6521 3.89416 17.7575 3.74063C17.8629 3.5871 18.0801 3.46149 18.2407 3.46149C18.4013 3.46149 18.5324 3.5871 18.5324 3.74063ZM24.064 4.17973C24.6018 4.42147 25.0416 4.76789 25.0416 4.95017C25.0416 5.13217 25.3206 5.43811 25.6615 5.62989C26.0025 5.82166 26.2815 6.17645 26.2815 6.41847C26.2815 6.69259 25.7852 6.38916 24.9641 5.6137C24.2394 4.92895 23.3678 4.23137 23.0268 4.06332C22.0585 3.58571 22.9695 3.68815 24.064 4.17973ZM21.2098 4.38378C21.3282 4.49069 21.6884 4.57807 22.0098 4.57807C22.3316 4.57807 23.8526 5.69716 25.3903 7.06497C28.6511 9.96529 29.6669 10.4722 30.8869 9.80757C32.2876 9.04495 31.8022 7.21655 30.2933 7.5719C29.6427 7.72515 29.5909 7.65034 29.8792 6.97369C29.9827 6.73083 30.2577 6.53208 30.4901 6.53208C30.7229 6.53208 31.0282 6.13235 31.1686 5.64384C31.6203 4.07505 32.0747 4.44436 32.3347 6.59098C32.6419 9.12534 32.609 9.30316 31.6745 10.161C30.4405 11.2935 28.0538 11.1025 24.8051 9.61133C23.3963 8.96483 21.862 8.34457 21.3955 8.23319C20.7781 8.08581 20.5205 7.82648 20.4492 7.28131C20.355 6.56279 20.7867 6.25685 21.1491 6.78499C21.2446 6.924 21.5806 6.97732 21.8961 6.90279C22.2113 6.82854 22.6896 6.96615 22.9583 7.20817C23.2274 7.45047 23.5535 7.64866 23.683 7.64866C23.8126 7.64866 24.5156 8.24296 25.2456 8.96902C26.2427 9.9611 26.6608 10.2101 26.9277 9.96976C27.1946 9.72941 26.7681 9.19289 25.2115 7.81196L23.1403 5.97379L20.9138 5.96961C18.5807 5.96514 17.7466 5.72368 17.9707 5.11821C18.214 4.46138 20.6761 3.90309 21.2098 4.38378ZM3.31969 5.48529C3.29645 6.62029 3.28157 6.63816 2.9806 5.8948C2.80733 5.46742 2.7444 4.9337 2.84018 4.70843C3.15479 3.97037 3.34449 4.27771 3.31969 5.48529ZM12.6431 4.99678C12.6431 5.20894 12.5036 5.46017 12.3331 5.55508C12.1567 5.65333 12.0231 5.41299 12.0231 4.99678C12.0231 4.58058 12.1567 4.34024 12.3331 4.43849C12.5036 4.5334 12.6431 4.78463 12.6431 4.99678ZM35.5803 5.18967C35.5803 6.02683 35.554 6.04777 35.1411 5.53944C34.8309 5.15757 34.7964 4.89545 35.024 4.64869C35.501 4.13088 35.5803 4.20792 35.5803 5.18967ZM17.1115 5.28179C17.2194 5.66869 17.1642 6.22614 16.9891 6.52092C16.5756 7.21711 17.0619 7.50044 17.9422 7.07614C18.9555 6.58763 19.8057 7.40274 19.0584 8.14638C18.6821 8.52043 18.634 8.74515 18.8817 8.96818C19.0689 9.13679 19.1278 9.4123 19.0125 9.58035C18.6926 10.0465 16.9826 10.7768 16.9826 10.4474C16.9826 10.2899 17.1918 10.161 17.4475 10.161C17.9518 10.161 18.078 9.72774 17.644 9.48628C17.4962 9.40393 17.1301 9.58091 16.8301 9.87931C15.814 10.8904 15.2331 10.1978 15.2669 8.01546C15.3066 5.45598 16.6184 3.51201 17.1115 5.28179ZM44.8792 4.98032C44.8792 5.20168 44.7398 5.46017 44.5693 5.55508C44.3988 5.64998 44.2593 5.46882 44.2593 5.15283C44.2593 4.83683 44.3988 4.57807 44.5693 4.57807C44.7398 4.57807 44.8792 4.75895 44.8792 4.98032ZM3.24592 7.422C3.14705 7.64448 3.07359 7.57832 3.05871 7.25312C3.04538 6.9589 3.11853 6.7942 3.22144 6.88688C3.32434 6.97955 3.3355 7.22046 3.24592 7.422ZM16.2061 8.03388C15.5511 8.46516 15.8292 9.04439 16.6909 9.04439C17.0799 9.04439 17.2925 8.8529 17.2925 8.50257C17.2925 7.76925 16.879 7.59088 16.2061 8.03388ZM3.69196 9.60268C3.86182 9.60268 3.91018 9.73444 3.79983 9.8955C3.49203 10.3438 2.72426 9.64567 2.72426 8.9171C2.72426 7.93227 3.17928 7.78768 3.28622 8.73845C3.33984 9.21383 3.52241 9.60268 3.69196 9.60268ZM12.6431 9.0268C12.6431 9.64623 11.8511 10.3084 11.5808 9.91476C11.4776 9.7643 11.535 9.56248 11.7082 9.4659C11.8815 9.36959 12.0231 9.03937 12.0231 8.73231C12.0231 8.42525 12.1626 8.25162 12.3331 8.34653C12.5036 8.44144 12.6431 8.74738 12.6431 9.0268ZM35.6984 9.3227L35.9055 10.2986L35.2261 9.6867C34.6529 9.17056 34.6102 9.00587 34.9527 8.63405C35.4421 8.10283 35.439 8.10004 35.6984 9.3227ZM44.6217 9.4712C44.4183 9.87317 44.1081 10.1096 43.9211 10.0058C43.6803 9.87178 43.6806 9.73304 43.9224 9.51531C44.1077 9.34838 44.2593 8.96065 44.2593 8.65359C44.2593 8.22649 44.3449 8.17234 44.6229 8.42273C44.9009 8.67313 44.9006 8.91961 44.6217 9.4712ZM86.0024 14.0606C85.0089 14.3465 83.9516 14.7794 83.6535 15.0226C83.355 15.2657 82.9678 15.4647 82.7927 15.4647C82.0897 15.4647 79.19 18.6445 78.2713 20.4229C76.2199 24.3935 77.1548 30.1307 80.3337 33.0796C85.211 37.604 93.7437 38.0802 98.5295 34.0952C100.096 32.7907 100.673 31.989 100.673 31.1153C100.673 30.2516 100.367 30.3875 98.3404 32.1503C95.3301 34.7696 92.4744 35.5822 89.5359 34.656C85.5697 33.4057 82.3848 28.5469 82.3848 23.7464V23.0016H91.0259C100.714 23.0016 100.604 23.0243 100.223 21.1205C99.155 15.7802 92.1362 12.2956 86.0024 14.0606ZM105.012 13.9359C101.16 14.3551 101.602 14.2331 101.602 14.8766C101.602 15.4717 102.179 15.7439 103.44 15.7439C105.375 15.7439 105.467 16.121 105.572 24.4959C105.694 34.2244 105.679 34.2732 102.455 34.8603C101.503 35.0336 101.263 35.9445 102.093 36.2312C103.308 36.6513 113.945 36.4112 114.454 35.9523C115.152 35.324 114.535 34.7257 113.188 34.7257C110.873 34.7257 110.432 32.9537 110.638 24.4797L110.746 19.9827L111.706 18.9099C114.645 15.6266 119.71 15.1476 121.572 17.977C122.179 18.8993 122.215 19.3661 122.215 26.3062V33.6583L121.483 34.192C121.081 34.4857 120.43 34.7257 120.036 34.7257C118.481 34.7257 117.613 35.8102 118.831 36.2312C119.101 36.3244 124.814 36.4006 131.528 36.4006C143.081 36.4006 143.752 36.373 144.042 35.885C144.44 35.2159 143.915 34.7257 142.8 34.7257C142.342 34.7257 141.637 34.4857 141.235 34.1926C140.507 33.6619 140.503 33.6251 140.41 26.8097L140.317 19.9604L141.96 18.4678C145.392 15.3492 149.389 15.173 151.225 18.0594C151.961 19.2162 151.971 19.3381 151.971 26.4111C151.971 34.5276 152.004 34.4142 149.58 34.7056C148.417 34.8455 148.252 34.9521 148.252 35.5632V36.261H154.572C160.295 36.261 160.925 36.2141 161.237 35.7647C161.674 35.1327 161.068 34.7361 159.655 34.7299C157.509 34.7207 157.396 34.3282 157.396 26.8988C157.396 20.4109 157.295 19.5682 156.267 17.4899C154.051 13.0122 146.673 12.3104 141.978 16.1305C140.369 17.4394 140.348 17.4307 140.348 15.4812C140.348 14.569 140.211 13.7466 140.043 13.6531C139.479 13.3393 131.853 14.1209 131.359 14.5433C130.789 15.0301 131.639 15.7439 132.788 15.7439C135.231 15.7439 135.394 16.3337 135.357 25.0115C135.317 34.5167 135.326 34.4921 132.173 34.673C127.705 34.9292 127.639 34.8084 127.639 26.3757C127.639 20.5044 127.583 19.8152 126.979 18.3625C124.784 13.08 117.395 11.9483 112.296 16.1137C110.723 17.3992 110.715 17.3978 110.715 15.8114C110.715 13.2589 110.844 13.3011 105.012 13.9359ZM208.632 14.0176C205.454 15.197 202.954 17.6658 202.851 19.7262C202.787 21.0021 203.79 20.9594 204.59 19.6519C207.923 14.2035 215.359 15.3302 215.359 21.2835C215.359 22.9316 215.226 23.0413 212.259 23.8296C204.049 26.0114 202.235 27.2648 202.203 30.7758C202.154 36.0938 209.601 38.787 214.141 35.0931L215.378 34.0871L216.471 35.2374C218.185 37.0407 220.357 37.3048 222.598 35.9827C224.633 34.7821 225.513 31.4422 223.623 32.0954C223.363 32.185 223.009 32.6249 222.836 33.0732C222.503 33.9341 221.666 34.1529 221 33.5533C220.732 33.3113 220.628 31.3405 220.628 26.4432C220.628 18.8254 220.376 17.7621 218.11 15.8279C215.783 13.8421 211.374 12.9999 208.632 14.0176ZM46.3627 18.5353C46.4291 21.9856 46.3274 23.6314 45.957 25.0952C45.3116 27.6472 44.1502 31.0938 43.9348 31.0955C43.8418 31.0963 42.2886 29.8092 40.483 28.2356C38.6778 26.6621 35.8946 24.2547 34.2983 22.8864C32.702 21.5177 29.7679 18.963 27.778 17.2088C25.7415 15.4136 23.9583 14.0609 23.6979 14.1142C23.4437 14.1661 20.3484 16.7209 16.8192 19.7915C2.31696 32.4094 3.69134 31.4115 3.07606 29.7709C2.86002 29.1953 2.56493 28.4729 2.42018 28.1658C1.68929 26.6141 1.41342 24.636 1.26402 19.8705C1.17413 16.997 1.18281 14.4523 1.28355 14.2158C1.44628 13.8337 3.93838 13.794 23.8702 13.8577L46.2741 13.9294L46.3627 18.5353ZM221.249 14.3015C220.163 14.6265 221.218 15.7439 222.611 15.7439C223.725 15.7439 224.846 17.0877 226.218 20.0706C227.927 23.7833 228.375 24.7234 228.713 25.3007C228.87 25.5673 228.997 25.9142 228.997 26.0714C228.997 26.2288 229.264 26.8899 229.59 27.5408C229.916 28.1915 230.561 29.5406 231.024 30.5386C231.487 31.5365 232.047 32.7299 232.268 33.1904C232.488 33.651 232.758 34.3495 232.867 34.7425C233.27 36.1991 234.325 37.0385 235.119 36.5335C235.503 36.2895 235.817 35.8708 235.817 35.6031C235.817 35.3354 235.942 34.9971 236.096 34.8514C236.25 34.7056 236.589 34.0209 236.851 33.33C237.112 32.6391 238.45 29.5803 239.826 26.5323C241.201 23.4843 242.326 20.788 242.326 20.5407C242.326 19.5735 243.213 20.9416 244.645 24.1182C245.442 25.8838 246.306 27.768 246.566 28.3054C246.826 28.8428 247.145 29.5336 247.276 29.8407C247.546 30.4744 248.726 33.0495 249.325 34.3112C249.545 34.774 249.87 35.4965 250.047 35.9163C250.389 36.7269 251.325 36.9424 251.846 36.3308C252.155 35.9679 252.838 34.4681 255.055 29.2824C255.777 27.5936 256.626 25.6848 256.941 25.0408C257.256 24.3968 257.514 23.7877 257.514 23.6872C257.514 23.5867 257.707 23.1088 257.944 22.6251C258.18 22.1413 258.696 20.9918 259.091 20.0706C260.504 16.772 261.28 16.0384 263.791 15.6289C265.137 15.4095 265.455 14.4947 264.256 14.289C263.699 14.1935 257.077 14.2195 255.422 14.3239C254.37 14.39 255.12 15.3612 256.584 15.8293C257.987 16.2782 258.134 16.4063 258.134 17.1801C258.134 17.8858 256.258 22.6254 254.559 26.2118C254.341 26.6724 253.92 27.65 253.623 28.3844C252.857 30.277 252.801 30.2469 251.512 27.2421C250.874 25.7543 250.22 24.2544 250.058 23.9089C249.521 22.7599 249.065 21.7516 248.825 21.1872C248.695 20.8801 248.296 19.9777 247.937 19.1815C246.975 17.045 247.344 15.7439 248.912 15.7439C250.276 15.7439 251.043 14.5522 249.842 14.2987C249.42 14.2097 239.578 14.2345 238.529 14.3275C237.858 14.3869 238.371 15.47 239.149 15.6364C240.093 15.8385 240.989 16.454 241.438 17.2108C241.712 17.6722 240.698 20.4424 239.046 23.7417C238.804 24.2254 238.606 24.7089 238.606 24.8161C238.606 24.9233 238.41 25.4068 238.17 25.8905C237.931 26.3743 237.489 27.3982 237.189 28.1658C236.515 29.8918 236.206 30.2335 235.949 29.5384C235.839 29.2442 235.556 28.6074 235.318 28.1237C235.081 27.6399 234.887 27.1578 234.887 27.0523C234.887 26.9468 234.468 26.0463 233.957 25.0511C233.445 24.056 233.027 23.1234 233.027 22.9785C233.027 22.8336 232.885 22.4967 232.713 22.2301C231.956 21.0616 230.547 17.5519 230.547 16.8334C230.547 16.1559 230.721 15.9985 231.787 15.7109C232.989 15.3866 233.596 14.3936 232.639 14.3172C231.602 14.2343 221.52 14.2206 221.249 14.3015ZM91.0424 15.4591C93.0698 15.9828 94.5629 17.7188 94.9414 19.9925L95.1596 21.3025L89.4377 21.3846C82.1982 21.4881 82.5742 21.5604 82.8308 20.1139C83.4898 16.401 86.9955 14.414 91.0424 15.4591ZM25.8698 19.011C28.0402 20.2917 27.9357 23.5619 25.6863 24.7586C21.6205 26.9214 17.9568 21.9258 21.5837 19.1648C22.596 18.3941 24.6966 18.3187 25.8698 19.011ZM215.359 28.3333V31.9901L214.352 32.8806C211.247 35.6257 207.3 34.1644 207.3 30.2695C207.3 28.661 207.913 27.6251 209.384 26.7511C210.107 26.3212 214.378 24.8002 215.126 24.7058C215.254 24.6896 215.359 26.3221 215.359 28.3333ZM14.8776 28.0679C17.4171 29.6964 16.9717 33.004 14.0791 33.9988C10.3184 35.2924 7.39292 30.8758 10.3788 28.4129C11.7764 27.2603 13.4214 27.1338 14.8776 28.0679ZM36.7009 28.0896C38.1078 29.0675 38.3496 29.472 38.3601 30.866C38.3837 33.9916 34.2915 35.4055 31.9634 33.0763C29.1585 30.27 33.406 25.7992 36.7009 28.0896ZM26.0022 30.478C36.4132 40.413 36.8484 40.8669 35.9647 40.8669C35.8351 40.8669 35.3817 41.1531 34.9573 41.5028C34.5327 41.8529 33.6973 42.4433 33.1006 42.8154C32.504 43.1875 31.946 43.5735 31.8608 43.6729C31.2827 44.3484 24.6346 47.5664 23.8172 47.5664C23.5318 47.5664 22.7209 47.3152 22.0151 47.0081C21.3093 46.7011 20.5859 46.4498 20.407 46.4498C20.2285 46.4498 20.0822 46.3242 20.0822 46.1707C20.0822 46.0172 19.9415 45.8916 19.7694 45.8916C19.2921 45.8916 14.5094 43.0105 13.108 41.8788C12.4261 41.3281 11.7634 40.8753 11.6357 40.8722C10.9978 40.8577 11.6419 39.9991 14.1154 37.5666C18.3015 33.4498 23.5439 28.5845 23.7934 28.5845C23.9171 28.5845 24.9111 29.4365 26.0022 30.478ZM51.8367 40.0538C51.7223 40.2207 51.7561 40.4722 51.9123 40.6129C52.2415 40.9094 264.474 40.8332 264.803 40.5367C264.92 40.4318 264.923 40.2118 264.811 40.0482C264.518 39.622 52.1293 39.6275 51.8367 40.0538ZM111.211 42.7657C109.898 43.5688 109.373 44.313 109.362 45.3849C109.356 45.9507 109.225 46.7136 109.07 47.0804C108.633 48.1158 108.543 49.8825 108.921 49.9961C109.273 50.1016 110.281 48.0404 110.281 47.2175C110.281 46.5685 111.262 44.775 111.617 44.775C111.776 44.775 111.739 44.5921 111.532 44.3685C111.042 43.8368 111.418 43.3122 112.141 43.5188C112.864 43.7254 113.24 43.2009 112.75 42.6691C112.288 42.1678 112.178 42.1745 111.211 42.7657ZM181.263 42.7311C179.033 43.5691 178.48 46.2639 180.236 47.7297C181.627 48.8904 185.293 48.5032 185.293 47.1954C185.293 46.8367 184.126 47.0109 183.743 47.4268C182.689 48.5702 180.643 47.2775 180.643 45.4684C180.643 43.7137 182.662 42.6256 183.743 43.798C184.542 44.665 185.377 44.0936 184.706 43.1395C184.418 42.73 182.022 42.4458 181.263 42.7311ZM233.182 42.7654C231.205 43.1261 231.17 44.3412 233.092 45.8893C234.216 46.7951 234.273 46.9102 233.85 47.4232C233.406 47.962 233.375 47.9631 232.764 47.4657C232.022 46.8605 231.468 47.0578 231.697 47.8458C232.062 49.1 235.507 48.2107 235.507 46.8624C235.507 46.6285 234.937 45.8804 234.24 45.1998C232.938 43.9283 232.813 43.1074 234.009 43.6835C234.434 43.8884 234.746 43.8968 234.955 43.7086C235.594 43.1333 234.463 42.532 233.182 42.7654ZM52.2421 44.9698C52.4225 47.7289 52.8586 48.4039 54.4608 48.4039C56.3079 48.4039 56.974 47.7442 57.1383 45.7517C57.2145 44.8305 57.3494 43.7946 57.438 43.449C57.5719 42.9284 57.469 42.821 56.837 42.821C56.0072 42.821 55.528 43.2349 56.0329 43.516C56.748 43.9141 56.3962 46.6542 55.5531 47.2515C54.0879 48.2894 53.379 47.22 53.6072 44.3144C53.7073 43.0348 53.6689 42.9558 52.9064 42.8762L52.0995 42.7916L52.2421 44.9698ZM116.156 42.8907C116.148 42.929 116.112 44.1907 116.078 45.6942L116.016 48.4279L116.791 48.3461C117.545 48.2665 117.566 48.2054 117.566 46.0311C117.566 43.7608 117.845 43.1286 118.46 44.0065C118.715 44.3705 118.697 44.6438 118.39 45.0859C117.717 46.0576 118.453 46.3736 119.402 45.5197C120.89 44.1796 119.965 42.821 117.566 42.821C116.798 42.821 116.164 42.8525 116.156 42.8907ZM210.617 42.9971C210.51 43.0942 210.566 43.4166 210.742 43.7137C211.122 44.3521 211.045 47.0014 210.633 47.4844C210.109 48.0993 210.712 48.3826 212.503 48.3642C214.203 48.3466 214.724 48.1113 214.734 47.3571C214.741 46.8655 213.912 46.9213 213.697 47.4268C213.599 47.6571 213.31 47.8456 213.055 47.8456C212.216 47.8456 211.859 46.739 212.046 44.7256C212.217 42.8835 212.2 42.821 211.518 42.821C211.13 42.821 210.725 42.9002 210.617 42.9971ZM59.0542 43.5476C58.9513 43.64 58.9956 44.0199 59.1524 44.3914C59.3093 44.763 59.3607 45.8176 59.2668 46.7354C59.105 48.314 59.1326 48.4039 59.7767 48.4039C60.4143 48.4039 60.4443 48.3154 60.2515 47.0081C59.9986 45.2894 60.2339 45.2646 61.6188 46.8627C63.1894 48.6752 63.6202 48.4577 63.6844 45.8206C63.7374 43.6503 63.5985 43.2458 62.929 43.6185C62.6535 43.7717 62.651 44.0715 62.9182 44.8559C63.4584 46.4412 62.9733 46.4348 61.3404 44.8353C59.9131 43.437 59.4599 43.1819 59.0542 43.5476ZM65.8017 43.5599C65.2054 43.7491 65.4989 48.2643 66.1074 48.2643C66.5599 48.2643 66.6473 47.9268 66.7022 45.9706C66.7642 43.7714 66.5912 43.3092 65.8017 43.5599ZM68.2619 43.7432C68.1767 43.9434 68.46 44.8263 68.8915 45.7051C69.3232 46.5841 69.6763 47.4966 69.6763 47.7334C69.6763 48.0105 69.9035 48.1317 70.3145 48.0745C71.3941 47.9235 73.1336 43.7357 72.2338 43.4541C71.8163 43.3234 71.7437 43.4543 71.227 45.2718C70.8259 46.6824 70.5578 46.6237 69.9766 44.9983C69.4339 43.4806 68.6258 42.8891 68.2619 43.7432ZM84.477 43.7036C83.2533 44.1061 83.2927 45.3615 84.5545 46.1707C85.5055 46.7806 85.7423 47.39 85.1549 47.7169C84.9736 47.8177 84.5787 47.6993 84.2774 47.4536C83.6321 46.9277 83.3187 47.1011 83.5394 47.8618C83.7486 48.5817 85.4987 48.6023 86.2113 47.8933C86.9586 47.1497 86.8445 46.5506 85.7944 45.7079C85.2829 45.2975 84.8645 44.7942 84.8645 44.5893C84.8645 44.1385 85.2389 44.1073 85.6974 44.5201C86.197 44.9701 86.5615 44.294 86.0932 43.7857C85.6673 43.3237 85.6372 43.322 84.477 43.7036ZM88.4002 43.6003C88.2084 43.7142 88.0624 44.7806 88.0562 46.1154C88.0463 48.293 88.0841 48.4279 88.6786 48.3486C89.2573 48.2715 89.3094 48.0756 89.2833 46.0682C89.2551 43.8705 89.0257 43.2293 88.4002 43.6003ZM90.7373 43.784C89.9869 44.4623 90.4395 44.9461 91.3942 44.4861C92.0745 44.1581 92.0752 44.1603 91.9961 46.8208C91.9499 48.3737 91.9806 48.4438 92.6675 48.3561C93.3565 48.2682 93.3829 48.1775 93.2828 46.2405C93.1727 44.1204 93.2152 44.0389 94.1838 44.5056C94.681 44.7454 94.7833 44.7018 94.7833 44.2513C94.7833 43.6461 91.3309 43.2475 90.7373 43.784ZM95.8362 43.7723C95.733 44.0143 95.9423 44.66 96.3009 45.2074C96.6719 45.7732 96.953 46.6857 96.953 47.3227C96.953 48.3246 97.0265 48.4332 97.6505 48.3536C98.2208 48.2805 98.3299 48.1149 98.2493 47.4436C98.1517 46.6277 98.6154 45.5292 99.3553 44.8249C99.8109 44.3909 99.8611 43.7572 99.4579 43.5328C99.0943 43.3304 98.1929 44.1304 98.1929 44.6552C98.1929 45.3056 97.6371 45.1102 97.2026 44.3071C96.7175 43.4113 96.0941 43.1674 95.8362 43.7723ZM126.107 43.6355C125.749 43.8454 125.73 44.0369 126.014 44.5977C126.247 45.0586 126.283 45.7838 126.119 46.7198C125.862 48.1805 126.06 48.5811 126.893 48.293C127.249 48.1699 127.281 48.0072 127.033 47.589C126.855 47.2898 126.715 46.6282 126.723 46.1193L126.736 45.1937L128.195 46.6592C128.998 47.4654 129.809 48.125 129.997 48.1247C130.415 48.1247 130.823 43.9054 130.439 43.5571C129.846 43.02 129.441 43.729 129.643 44.9475C129.902 46.5009 129.726 46.4822 127.981 44.7719C126.912 43.7237 126.442 43.439 126.107 43.6355ZM132.133 43.6601C132.026 43.8155 132.041 44.2239 132.167 44.5681C132.434 45.2986 132.411 46.605 132.116 47.4933C131.968 47.9394 132.057 48.1694 132.43 48.2981C133.317 48.6046 133.536 48.0533 133.04 46.7591C132.373 45.0139 132.757 44.9868 134.469 46.6592C136.376 48.5231 136.598 48.5024 136.587 46.4616C136.582 45.5468 136.672 44.5316 136.787 44.2055C136.965 43.7019 136.887 43.6277 136.27 43.712C135.809 43.7748 135.589 43.9618 135.667 44.2234C136.327 46.4208 135.933 46.6829 134.443 45.0371C133.269 43.7399 132.424 43.236 132.133 43.6601ZM138.876 43.7954C137.559 44.311 137.582 45.0086 138.953 46.1327C139.55 46.6215 140.038 47.1368 140.038 47.2775C140.038 47.7987 139.361 47.886 138.809 47.4361C138.186 46.928 137.746 47.234 138.055 47.96C138.32 48.5811 140.118 48.537 140.765 47.8933C141.475 47.1865 141.416 46.8903 140.348 45.7947C139.42 44.8431 139.164 44.2167 139.702 44.2167C139.858 44.2167 140.041 44.3646 140.108 44.5452C140.175 44.7258 140.396 44.7811 140.6 44.6678C140.866 44.5196 140.879 44.3105 140.648 43.9205C140.27 43.2846 140.194 43.279 138.876 43.7954ZM142.34 43.7497C142.243 43.9788 142.417 44.586 142.728 45.0988C143.038 45.6116 143.362 46.5336 143.448 47.1477C143.665 48.7137 144.826 48.7944 144.875 47.2465C144.892 46.6868 145.22 45.7729 145.602 45.2157C146.325 44.1628 146.275 43.2765 145.509 43.5414C145.266 43.6254 144.985 44.0629 144.885 44.5137C144.651 45.5644 144.338 45.5423 143.757 44.4344C143.232 43.4323 142.605 43.1291 142.34 43.7497ZM147.924 43.5473C147.724 43.6218 147.622 44.5611 147.661 45.9666L147.726 48.2643L149.165 48.2774C150.749 48.2919 151.571 47.7883 150.915 47.2058C150.618 46.9417 150.448 46.9746 150.134 47.3571C149.212 48.4809 148.62 47.3568 148.79 44.8051C148.868 43.6294 148.631 43.2849 147.924 43.5473ZM151.607 43.8262C151.399 44.3133 153.039 48.1409 153.488 48.2174C153.639 48.2431 153.868 48.0759 153.997 47.8456C156.287 43.7318 156.308 43.6584 155.174 43.6584C154.782 43.6584 154.606 43.8647 154.606 44.3244C154.606 45.094 153.815 46.6031 153.59 46.2611C153.507 46.1347 153.337 45.5915 153.212 45.0541C152.853 43.5107 152.014 42.8692 151.607 43.8262ZM161.906 43.6349C161.81 43.7756 161.849 44.1837 161.994 44.5422C162.14 44.9006 162.202 45.9161 162.134 46.7988C162.021 48.2685 162.064 48.4039 162.648 48.4039C163.353 48.4039 163.395 48.192 163 46.6592C162.608 45.1362 163.599 45.5398 165.058 47.4966C165.872 48.5892 167.095 47.924 166.405 46.7636C166.231 46.4705 166.23 46.1213 166.402 45.8765C166.96 45.0823 166.754 43.6584 166.081 43.6584C165.529 43.6584 165.487 43.7893 165.663 44.9469C165.853 46.2 165.84 46.2268 165.192 45.9142C164.825 45.7375 164.525 45.4996 164.525 45.3857C164.525 45.0614 162.736 43.3792 162.391 43.3792C162.221 43.3792 162.003 43.4943 161.906 43.6349ZM168.632 43.5769C168.364 43.6656 168.245 44.433 168.245 46.0738C168.245 48.3444 168.272 48.439 168.916 48.3536C169.547 48.2696 169.583 48.1311 169.516 46.0311C169.442 43.7385 169.304 43.355 168.632 43.5769ZM191.91 43.8069C191.834 43.9842 191.814 45.0597 191.865 46.1969C191.947 48.0471 192.022 48.2643 192.574 48.2643C193.006 48.2643 193.237 48.0292 193.348 47.4765L193.507 46.6888L194.067 47.5463C194.599 48.3609 195.182 48.6168 195.616 48.226C195.724 48.1281 195.516 47.6722 195.152 47.213C194.617 46.5355 194.56 46.2798 194.852 45.8594C195.322 45.1814 195.309 44.356 194.824 44.0048C194.233 43.5774 192.07 43.4306 191.91 43.8069ZM201.934 43.7614C201.844 43.9719 202.03 44.5274 202.347 44.9963C202.663 45.4653 202.966 46.3923 203.019 47.0564C203.1 48.0647 203.231 48.2791 203.813 48.3536C204.443 48.434 204.511 48.3263 204.517 47.237C204.521 46.4719 204.745 45.776 205.13 45.3333C205.745 44.6248 205.916 43.901 205.546 43.5677C205.228 43.281 204.51 43.9476 204.51 44.5299C204.51 45.3592 203.674 45.1395 203.317 44.2167C202.98 43.3474 202.217 43.0962 201.934 43.7614ZM220.779 43.6645C220.671 43.8217 220.79 44.5438 221.043 45.2696C221.296 45.9957 221.59 46.9431 221.697 47.3755C221.962 48.4541 222.854 48.2545 223.299 47.0171C223.65 46.0442 224.348 45.5211 224.348 46.2313C224.348 47.6351 225.694 48.6319 226.056 47.4966C226.167 47.1511 226.551 46.2075 226.911 45.4C227.387 44.3306 227.472 43.8477 227.223 43.6238C226.741 43.1897 226.208 43.5713 226.208 44.3498C226.208 46.0188 225.573 46.3178 225.01 44.9145C224.794 44.3772 224.428 43.9375 224.197 43.9375C223.965 43.9375 223.615 44.3772 223.418 44.9145C222.971 46.1347 222.601 46.1584 222.322 44.9843C221.994 43.6051 221.254 42.972 220.779 43.6645ZM243.064 43.6146C242.905 43.7153 242.787 44.8029 242.803 46.0311C242.83 48.0432 242.892 48.2643 243.431 48.2643C243.899 48.2643 244.031 48.0678 244.031 47.371C244.031 46.3371 244.552 45.7442 245.25 45.9853C245.581 46.1001 245.735 46.516 245.735 47.2979C245.735 48.3162 245.81 48.4329 246.413 48.3536C247.042 48.2707 247.093 48.1041 247.121 46.0311C247.139 44.8029 247.021 43.7153 246.86 43.6146C246.304 43.2667 245.735 43.7198 245.735 44.5092C245.735 45.4714 245.336 45.7383 244.499 45.3349C244.041 45.1141 243.919 44.8554 244.051 44.383C244.237 43.7162 243.639 43.2508 243.064 43.6146ZM250.7 43.6813C249.477 43.9219 248.215 45.0745 248.215 45.9504C248.215 47.1103 249.672 48.4039 250.978 48.4039C254.046 48.4039 254.874 44.83 252.09 43.6051C251.919 43.53 251.294 43.5643 250.7 43.6813ZM256.993 43.6679C255.5 43.9574 254.933 44.6265 254.958 46.0705C254.998 48.4505 257.918 49.2703 259.603 47.3744C261.198 45.58 259.508 43.1805 256.993 43.6679ZM261.739 43.5995C261.656 43.7206 261.556 44.8196 261.516 46.042L261.444 48.2643H263.121C264.624 48.2643 264.808 48.1992 264.897 47.6362C265.014 46.8954 264.742 46.8406 263.99 47.4542C263.053 48.2174 262.69 47.6638 262.862 45.7358C263.028 43.8666 262.39 42.6512 261.739 43.5995ZM74.2135 45.9613C74.2544 48.185 74.2811 48.2643 74.9884 48.2643C75.6074 48.2643 75.7063 48.1423 75.6276 47.4743C75.5566 46.8725 75.6859 46.6483 76.17 46.5344C77.0038 46.3379 76.988 45.4413 76.1471 45.2434C75.6177 45.1186 75.5278 44.9486 75.688 44.3733C75.8659 43.7352 75.7953 43.6584 75.029 43.6584H74.1708L74.2135 45.9613ZM76.2404 44.1237C76.391 44.8241 77.1154 44.9201 77.1154 44.2398C77.1154 43.8971 76.9152 43.6584 76.6278 43.6584C76.3389 43.6584 76.1809 43.8482 76.2404 44.1237ZM78.863 45.9613C78.9008 48.0077 78.9699 48.2643 79.4829 48.2643C79.8456 48.2643 80.0969 48.0309 80.1592 47.6362C80.2854 46.8356 80.4497 46.8468 81.2004 47.706C81.5355 48.0898 81.939 48.4039 82.0974 48.4039C82.5112 48.4039 82.4514 47.459 82.0125 47.0637C81.723 46.803 81.7292 46.5073 82.0407 45.7319C82.5844 44.3775 81.9077 43.6584 80.0895 43.6584H78.8202L78.863 45.9613ZM121.394 45.6124C121.368 46.6871 121.333 47.7236 121.316 47.9154C121.296 48.1412 121.784 48.2816 122.699 48.3131C124.378 48.3712 125.02 48.0887 124.733 47.4171C124.537 46.9568 124.496 46.9568 123.933 47.4162C123.606 47.6825 123.191 47.8177 123.009 47.7169C122.424 47.3911 122.659 46.7223 123.455 46.4498C124.454 46.1079 124.441 45.671 123.422 45.3221C122.76 45.0954 122.65 44.921 122.808 44.3521C122.976 43.7508 122.898 43.6584 122.221 43.6584C121.465 43.6584 121.439 43.7215 121.394 45.6124ZM123.3 44.0606C123.3 44.5472 123.808 44.8702 124.216 44.6429C124.629 44.4132 124.257 43.6584 123.732 43.6584C123.494 43.6584 123.3 43.8393 123.3 44.0606ZM157.732 44.6963C157.504 45.2769 157.055 46.2477 156.735 46.8535C156.383 47.5212 156.265 48.0558 156.438 48.211C156.79 48.5281 157.396 48.2199 157.396 47.7236C157.396 47.5212 157.586 47.2139 157.817 47.0405C158.067 46.8538 158.175 46.425 158.082 45.9879C157.975 45.479 158.036 45.3115 158.281 45.4477C158.476 45.5566 158.636 45.8698 158.636 46.1442C158.636 47.445 160.097 48.932 160.622 48.166C160.886 47.7814 159.066 43.8052 158.586 43.7192C158.32 43.6715 157.984 44.0567 157.732 44.6963ZM172.584 44.0291C172.584 44.2329 172.235 45.1725 171.809 46.1171C170.931 48.063 170.873 48.4047 171.422 48.4016C171.931 48.3988 172.584 47.105 172.584 46.0987C172.584 45.6375 172.715 45.3732 172.894 45.4728C173.064 45.5677 173.204 45.9518 173.204 46.3267C173.204 46.7016 173.343 47.0081 173.514 47.0081C173.684 47.0081 173.824 47.2633 173.824 47.5751C173.824 48.2512 174.648 48.6104 175.154 48.1549C175.426 47.91 175.421 47.6987 175.133 47.2842C174.925 46.983 174.754 46.5791 174.754 46.3868C174.754 45.5273 173.64 43.6603 173.126 43.6595C172.828 43.6589 172.584 43.825 172.584 44.0291ZM187.772 44.1695C187.772 44.4721 187.425 45.3916 187 46.2128C186.085 47.9843 186.029 48.4829 186.765 48.338C187.063 48.2791 187.27 48.0747 187.224 47.8838C187.179 47.6929 187.358 47.3417 187.622 47.1033C187.888 46.8644 188.023 46.4437 187.925 46.1648C187.827 45.8868 187.892 45.5786 188.069 45.4798C188.266 45.3704 188.392 45.6339 188.392 46.1542C188.392 46.6237 188.522 47.0081 188.68 47.0081C188.839 47.0081 189.014 47.2906 189.068 47.6362C189.201 48.4801 190.562 48.7037 190.562 47.8816C190.562 47.5728 190.422 47.2426 190.252 47.1477C190.081 47.0528 189.942 46.6938 189.942 46.3496C189.942 46.0054 189.814 45.6046 189.658 45.4589C189.502 45.3132 189.328 44.8796 189.271 44.4958C189.138 43.6017 187.772 43.3044 187.772 44.1695ZM197.136 45.9613L197.226 48.2643L198.689 48.3036C200.221 48.3447 201.188 47.8126 200.578 47.2635C200.372 47.0776 200.136 47.1279 199.872 47.4151C199.263 48.075 198.621 47.9374 198.621 47.1477C198.621 46.636 198.786 46.4498 199.241 46.4498C199.654 46.4498 199.861 46.2637 199.861 45.8916C199.861 45.5195 199.654 45.3333 199.241 45.3333C198.769 45.3333 198.623 45.1501 198.631 44.5656C198.64 43.8423 198.666 43.8281 199.081 44.3214C199.592 44.9296 200.566 44.7409 200.287 44.0877C200.157 43.7818 199.665 43.6584 198.575 43.6584H197.046L197.136 45.9613ZM217.329 44.0813C217.23 44.3138 217.221 44.7538 217.31 45.0586C217.398 45.3637 217.357 45.5499 217.218 45.4723C216.797 45.2384 215.541 47.8419 215.913 48.1772C216.293 48.5194 216.909 48.2447 216.909 47.7328C216.909 47.5354 217.187 47.1471 217.527 46.87C218.131 46.3778 218.15 46.3862 218.337 47.2275C218.529 48.0921 219.178 48.554 219.751 48.2347C220.104 48.0387 219.941 47.3347 219.047 45.1822C218.423 43.6799 217.698 43.2154 217.329 44.0813ZM237.196 44.397C235.506 46.0401 236.791 48.3765 239.397 48.3949C240.668 48.4039 241.396 48.0315 241.396 47.371C241.396 46.8619 240.762 46.9188 240.316 47.4679C239.322 48.6928 237.303 46.8113 237.955 45.2677C238.414 44.1807 239.199 43.8915 240.218 44.4339C241.171 44.9408 241.69 44.7328 241.092 44.0838C240.408 43.3418 238.091 43.528 237.196 44.397ZM193.967 45.1074C193.969 45.367 193.832 45.6571 193.662 45.752C193.475 45.8555 193.353 45.4999 193.356 44.8612C193.36 44.0718 193.438 43.906 193.662 44.2167C193.827 44.447 193.964 44.8478 193.967 45.1074ZM252.046 44.8526C252.817 45.7835 252.33 47.8456 251.338 47.8456C250.035 47.8456 249.376 45.8477 250.273 44.6153C250.868 43.7977 251.209 43.8435 252.046 44.8526ZM80.835 44.9145C80.835 45.2984 80.6955 45.6124 80.525 45.6124C80.3545 45.6124 80.215 45.2984 80.215 44.9145C80.215 44.5307 80.3545 44.2167 80.525 44.2167C80.6955 44.2167 80.835 44.5307 80.835 44.9145ZM104.678 45.0326C102.575 46.9269 104.627 49.5986 106.852 47.8615C107.822 47.1036 108.11 45.1102 107.325 44.593C106.443 44.0123 105.668 44.141 104.678 45.0326ZM258.322 44.7052C258.859 45.3425 258.849 46.7323 258.302 47.3825C257.396 48.4591 255.964 47.1326 256.242 45.4728C256.448 44.2331 257.574 43.8178 258.322 44.7052ZM106.481 46.408C105.985 47.4562 105.605 47.8634 105.287 47.6865C104.861 47.4495 104.961 46.5107 105.515 45.5454C106.193 44.366 107.074 45.1532 106.481 46.408ZM76.6486 47.5681C75.9893 48.2244 76.1827 48.5309 77.0922 48.271C77.4508 48.1685 77.7353 47.8484 77.7353 47.5477C77.7353 46.8552 77.3581 46.8624 76.6486 47.5681Z" fill="#1B4942" stroke="black" stroke-opacity="0.3" mask="url(#path-1-inside-1_107_15)"/>
</svg>
